<?xml version="1.0" encoding="UTF-8" standalone="no"?>
<!-- Generator: Adobe Illustrator 19.0.0, SVG Export Plug-In . SVG Version: 6.00 Build 0)  -->

<svg
   version="1.1"
   id="Layer_1"
   x="0px"
   y="0px"
   viewBox="0 0 551.034 551.034"
   style="enable-background:new 0 0 551.034 551.034;"
   xml:space="preserve"
   sodipodi:docname="hugo1.svg"
   inkscape:version="1.1.2 (0a00cf5339, 2022-02-04)"
   xmlns:inkscape="http://www.inkscape.org/namespaces/inkscape"
   xmlns:sodipodi="http://sodipodi.sourceforge.net/DTD/sodipodi-0.dtd"
   xmlns="http://www.w3.org/2000/svg"
   xmlns:svg="http://www.w3.org/2000/svg"><defs
   id="defs70" /><sodipodi:namedview
   id="namedview68"
   pagecolor="#ffffff"
   bordercolor="#666666"
   borderopacity="1.0"
   inkscape:pageshadow="2"
   inkscape:pageopacity="0.0"
   inkscape:pagecheckerboard="0"
   showgrid="false"
   inkscape:zoom="0.90738503"
   inkscape:cx="595.11672"
   inkscape:cy="407.21412"
   inkscape:window-width="1358"
   inkscape:window-height="707"
   inkscape:window-x="4"
   inkscape:window-y="28"
   inkscape:window-maximized="1"
   inkscape:current-layer="Layer_1" />

<g
   id="g37">
</g>
<g
   id="g39">
</g>
<g
   id="g41">
</g>
<g
   id="g43">
</g>
<g
   id="g45">
</g>
<g
   id="g47">
</g>
<g
   id="g49">
</g>
<g
   id="g51">
</g>
<g
   id="g53">
</g>
<g
   id="g55">
</g>
<g
   id="g57">
</g>
<g
   id="g59">
</g>
<g
   id="g61">
</g>
<g
   id="g63">
</g>
<g
   id="g65">
</g>
<g
   id="g1524"
   transform="matrix(4.0629616,0,0,4.0629616,43.621342,6.6577772)"
   style="stroke-width:0.246126"><path
     d="M 111.9334,85.394592 V 43.469577 c 0,-5.45196 -2.8875,-10.495829 -7.58775,-13.257817 C 94.257562,24.284837 76.435299,13.813357 65.520405,7.399811 59.75569,4.0143696 52.595234,4.0905009 46.905964,7.5987126 37.245522,13.555471 22.173586,22.848974 12.444558,28.849285 6.5769626,32.467235 3.0035935,38.866378 3.0035935,45.759345 v 42.925696 c 0,6.837412 3.6282385,13.160419 9.5301275,16.610679 l 35.912016,20.99165 c 4.773636,2.79148 10.668667,2.85218 15.500602,0.16118 10.486913,-5.84221 29.060201,-16.1851 39.759741,-22.14494 5.07541,-2.8292 8.22012,-8.182395 8.22012,-13.991691 v -4.91767 z"
     fill="#ff4088"
     id="path2"
     style="fill-rule:evenodd;stroke-width:0.122316" /><path
     d="m 56.426146,0.28393695 h 0.09499 l 0.0847,0.001029 h 0.484908 l 0.0847,0.003429 h 0.01029 l 0.0847,0.003429 h 0.0093 l 0.08573,0.003429 h 0.0069 l 0.08573,0.003429 h 0.01029 l 0.0823,0.003429 h 0.01029 l 0.0823,0.003429 h 0.0069 l 0.08573,0.003429 h 0.01029 l 0.08573,0.006859 h 0.01029 l 0.0823,0.006859 h 0.0069 l 0.0823,0.006859 h 0.01029 l 0.08573,0.006859 h 0.0069 l 0.0823,0.006859 h 0.01029 l 0.08573,0.006859 h 0.01029 l 0.08573,0.006859 h 0.01029 l 0.08573,0.006859 h 0.01029 l 0.0823,0.006859 h 0.01029 l 0.0823,0.006859 h 0.01029 l 0.08573,0.006859 h 0.01029 l 0.08573,0.010288 h 0.01029 l 0.08573,0.010288 h 0.0069 l 0.0823,0.010288 h 0.01029 l 0.0823,0.010288 h 0.01029 l 0.08573,0.010288 h 0.01029 l 0.08573,0.010288 h 0.0069 l 0.0823,0.010288 h 0.01029 l 0.08573,0.010288 h 0.01029 l 0.0823,0.0137173 0.01029,0.003429 0.08573,0.0137174 h 0.01029 l 0.0823,0.0137173 h 0.0069 l 0.08573,0.0137174 h 0.01029 l 0.0823,0.0137173 h 0.01029 l 0.0823,0.0137173 h 0.0069 l 0.08573,0.0137173 h 0.01029 l 0.0823,0.0137173 0.01029,0.003429 0.0823,0.0137173 0.01029,0.003429 0.0823,0.0171467 h 0.01029 l 0.0823,0.0137173 h 0.01029 l 0.0823,0.0171467 h 0.01029 l 0.08573,0.0171467 h 0.0069 l 0.0823,0.0171467 h 0.01029 l 0.0823,0.0171467 h 0.0069 l 0.08573,0.0171467 0.01029,0.003429 0.08573,0.0171467 h 0.0069 l 0.08231,0.020576 0.01029,0.003429 0.0823,0.020576 h 0.01029 l 0.08573,0.020576 0.0069,0.003429 0.0823,0.0171467 0.01029,0.003429 0.0823,0.0171467 0.0069,0.003429 0.0823,0.020576 h 0.01029 l 0.0823,0.020576 0.01029,0.003429 0.0823,0.020576 0.0069,0.003429 0.08573,0.020576 0.0069,0.003429 0.0823,0.020576 0.01029,0.003429 0.0823,0.020576 h 0.0069 l 0.08231,0.0240054 h 0.01029 l 0.08573,0.020576 0.01029,0.00343 0.0823,0.020576 h 0.01029 l 0.0823,0.024005 0.01029,0.00343 0.0823,0.024005 0.01029,0.00343 0.0823,0.024005 0.01029,0.00343 0.08231,0.024005 0.0069,0.00343 0.0823,0.024005 0.01029,0.00343 0.0823,0.024005 0.01029,0.00343 0.0823,0.024005 0.01029,0.00343 0.0823,0.027435 0.0069,0.00343 0.0823,0.027435 h 0.01029 l 0.0823,0.027435 h 0.01029 l 0.0823,0.027435 0.01029,0.00343 0.0823,0.027435 0.01029,0.00343 0.0823,0.027435 0.0069,0.00343 0.0823,0.027435 0.01029,0.00343 0.08231,0.027435 0.0069,0.00343 0.0823,0.027435 0.0069,0.00343 0.07888,0.027435 0.01029,0.00343 0.07888,0.027435 0.01029,0.00343 0.07888,0.030864 0.01029,0.00343 0.0823,0.030864 0.01029,0.00343 0.07887,0.030864 0.0069,0.00343 0.0823,0.027435 0.0069,0.00343 0.08231,0.030864 0.01029,0.00343 0.0823,0.030864 0.01029,0.00343 0.07887,0.030864 0.01029,0.00343 0.07887,0.034293 0.0069,0.00343 0.0823,0.030864 0.01029,0.00343 0.07887,0.034293 0.01029,0.00343 0.0823,0.034293 0.01029,0.00343 0.0823,0.034293 0.0069,0.00343 0.0823,0.034293 0.0069,0.00343 0.07888,0.034293 0.0069,0.00343 0.07887,0.034293 0.0069,0.00343 0.0823,0.034293 0.0069,0.00343 0.07887,0.034293 0.01029,0.00343 0.07887,0.034293 0.01029,0.00343 0.07887,0.034293 0.0069,0.00343 0.07887,0.037723 0.01029,0.00343 0.07887,0.037723 0.01029,0.00343 0.07887,0.037723 0.0069,0.00343 0.07888,0.037723 0.0069,0.00343 0.07887,0.037723 0.01029,0.00343 0.07887,0.037723 0.01029,0.00343 0.07887,0.037723 0.01029,0.00343 0.07887,0.037723 0.0069,0.00343 0.07887,0.041152 0.0069,0.00686 0.07887,0.037723 0.0069,0.00343 0.07545,0.041152 0.01029,0.00343 0.07887,0.037723 0.0069,0.00343 0.07887,0.041152 0.01029,0.00343 0.07545,0.041152 0.01029,0.00686 0.07887,0.041152 0.01029,0.00343 0.07887,0.041152 0.0069,0.00343 0.07545,0.041152 0.01029,0.00686 0.07887,0.041152 0.0069,0.00686 0.07545,0.044581 0.0069,0.00686 0.07545,0.044581 0.01029,0.00343 0.07545,0.044581 0.0069,0.00343 0.07545,0.044581 0.0069,0.00686 0.07545,0.044581 0.01029,0.00686 0.07202,0.044581 h 0.0069 l 38.854396,22.8290962 0.0652,0.03772 0.007,0.0069 0.0652,0.03772 0.0103,0.0034 0.0617,0.04115 0.007,0.0069 0.0617,0.03772 0.007,0.0069 0.0617,0.03772 0.007,0.0034 0.0617,0.03772 0.007,0.0034 0.0617,0.03772 0.007,0.0034 0.0617,0.03772 0.0103,0.0034 0.0617,0.04115 0.007,0.0034 0.0617,0.04115 0.0103,0.0034 0.0617,0.03772 0.007,0.0034 0.0617,0.04115 0.007,0.0069 0.0617,0.04115 0.007,0.0069 0.0583,0.03772 0.0103,0.0034 0.0617,0.04115 0.007,0.0034 0.0617,0.04115 0.007,0.0034 0.0583,0.04115 0.007,0.0034 0.0583,0.04115 0.007,0.0034 0.0583,0.04115 0.007,0.0069 0.0583,0.04115 0.007,0.0034 0.0583,0.04458 0.0103,0.0069 0.0583,0.04115 0.007,0.0034 0.0583,0.04115 0.007,0.0034 0.0583,0.04115 0.007,0.0069 0.0583,0.04115 0.007,0.0034 0.0583,0.04115 0.007,0.0069 0.0583,0.04115 0.007,0.0069 0.0583,0.04458 0.0103,0.0069 0.0549,0.04458 0.0103,0.0069 0.0583,0.04458 0.0103,0.0034 0.0583,0.04458 0.007,0.0069 0.0583,0.04458 0.007,0.0069 0.0549,0.04458 0.0103,0.0069 0.0583,0.04801 0.0103,0.01029 0.10974,0.08916 0.0137,0.01029 0.10974,0.09259 0.0137,0.01029 0.11317,0.09259 0.0137,0.01029 0.11317,0.09259 0.0137,0.01029 0.10974,0.09259 0.0137,0.01372 0.10974,0.09259 0.0137,0.01029 0.10631,0.09602 0.0137,0.01029 0.10631,0.09602 0.0137,0.01029 0.10631,0.09945 0.0137,0.01029 0.10288,0.09602 0.0137,0.01029 0.10631,0.09945 0.0137,0.01372 0.10288,0.09945 0.0137,0.01372 0.10288,0.09945 0.0137,0.01372 0.0995,0.09945 0.0137,0.01372 0.0994,0.10288 0.0137,0.01372 0.0995,0.10288 0.0103,0.01372 0.0995,0.10288 0.0137,0.01372 0.096,0.10288 0.0137,0.01372 0.096,0.10288 0.0137,0.01372 0.096,0.10288 0.0137,0.01372 0.096,0.106309 0.0137,0.01372 0.0926,0.109739 0.0103,0.01372 0.096,0.10631 0.0137,0.01372 0.0926,0.109739 0.0137,0.01372 0.0926,0.109739 0.0103,0.01372 0.0926,0.109738 0.0137,0.01372 0.0892,0.109739 0.0103,0.01372 0.0892,0.109739 0.0137,0.01372 0.0892,0.113168 0.0103,0.01372 0.0857,0.113168 0.0103,0.01372 0.0857,0.113168 0.0103,0.01372 0.0857,0.113168 0.0103,0.01715 0.0857,0.116598 0.0103,0.01372 0.0857,0.113168 0.0103,0.01715 0.0823,0.116597 0.0103,0.01372 0.0823,0.116597 0.0103,0.01372 0.0823,0.116598 0.0103,0.01715 0.0789,0.116598 0.0103,0.01715 0.0789,0.120026 0.0103,0.01715 0.0755,0.116598 0.0103,0.01372 0.0754,0.116597 0.0103,0.01372 0.0789,0.120027 0.0103,0.01372 0.0754,0.120027 0.0103,0.01715 0.072,0.120027 0.0103,0.01715 0.0755,0.120027 0.0103,0.01715 0.072,0.120027 0.0103,0.01715 0.072,0.123456 0.0103,0.01372 0.0686,0.123456 0.0103,0.01715 0.0686,0.123456 0.0103,0.01715 0.0686,0.123456 0.0103,0.01715 0.0686,0.123456 0.007,0.01715 0.0686,0.126886 0.007,0.01715 0.0652,0.126885 0.007,0.01715 0.0652,0.126885 0.0103,0.01372 0.0617,0.130314 0.007,0.01715 0.0652,0.126886 0.007,0.01715 0.0617,0.126886 0.0103,0.01715 0.0583,0.130315 0.007,0.01715 0.0583,0.130315 0.007,0.01715 0.0583,0.130315 0.007,0.01715 0.0583,0.130315 0.007,0.01715 0.0549,0.130315 0.007,0.01715 0.0549,0.130315 0.007,0.01715 0.0514,0.133744 0.007,0.01715 0.0514,0.130315 0.007,0.01715 0.0514,0.133744 0.007,0.01715 0.0514,0.133745 0.007,0.01715 0.0514,0.133744 0.007,0.01715 0.048,0.133744 0.007,0.01715 0.0446,0.133744 0.007,0.01715 0.0446,0.133744 0.007,0.01715 0.0446,0.133744 0.007,0.01715 0.0446,0.137174 0.003,0.01715 0.0412,0.133744 0.007,0.01715 0.0412,0.137174 0.003,0.01715 0.0411,0.137173 0.007,0.01715 0.0412,0.137173 0.007,0.01715 0.0377,0.137173 0.007,0.01715 0.0377,0.137173 0.003,0.01715 0.0343,0.137174 0.007,0.02058 0.0377,0.140603 0.003,0.01715 0.0343,0.140603 0.007,0.01715 0.0309,0.140602 0.007,0.01715 0.0343,0.140603 0.003,0.02058 0.0309,0.140603 0.003,0.01715 0.0309,0.140603 0.003,0.01715 0.0274,0.140603 0.003,0.01715 0.0274,0.140603 0.003,0.01715 0.0274,0.140603 0.003,0.01715 0.024,0.144032 0.003,0.01715 0.024,0.140603 0.003,0.02058 0.024,0.144032 0.003,0.02058 0.0206,0.144033 0.003,0.02058 0.0206,0.140603 v 0.01372 l 0.0103,0.07545 v 0.0069 l 0.007,0.07202 v 0.01029 l 0.0103,0.07202 v 0.0069 l 0.0103,0.07202 v 0.01029 l 0.0103,0.07202 0.003,0.01029 0.0103,0.07202 v 0.01029 l 0.007,0.07202 0.003,0.0069 0.007,0.07202 0.003,0.01029 0.007,0.07202 v 0.01029 l 0.007,0.07202 0.003,0.01029 0.007,0.07202 0.003,0.01029 0.007,0.07202 v 0.01029 l 0.007,0.07202 v 0.01029 l 0.007,0.07202 v 0.01029 l 0.007,0.07202 v 0.01029 l 0.007,0.07202 v 0.01029 l 0.003,0.07202 v 0.01029 l 0.003,0.07545 v 0.01029 l 0.007,0.07545 v 0.0069 l 0.003,0.07202 v 0.01029 l 0.003,0.07202 v 0.01029 l 0.003,0.07202 v 0.01029 l 0.003,0.07202 v 0.01029 l 0.003,0.07545 v 0.01029 l 0.003,0.07202 v 0.01029 l 0.003,0.07202 v 0.0069 l 0.003,0.07202 v 47.872861 l -0.003,0.07887 v 0.09945 l -0.003,0.07888 v 0.01029 l -0.003,0.07544 v 0.0069 l -0.003,0.07887 v 0.01029 l -0.003,0.07545 v 0.0069 l -0.003,0.07545 v 0.01029 l -0.003,0.07545 -0.003,0.01029 -0.003,0.07545 v 0.01029 l -0.003,0.07545 v 0.0069 l -0.003,0.07887 v 0.01029 l -0.007,0.07887 v 0.0069 l -0.007,0.07887 v 0.01029 l -0.007,0.07545 v 0.01029 l -0.003,0.07545 v 0.01029 l -0.007,0.07545 v 0.01029 l -0.007,0.07545 v 0.01029 l -0.007,0.07545 v 0.01029 l -0.007,0.07545 -0.003,0.0069 -0.007,0.07887 -0.003,0.01029 -0.007,0.07545 v 0.01029 l -0.007,0.07545 -0.003,0.01029 -0.0103,0.07545 v 0.01029 l -0.0103,0.07545 v 0.0069 l -0.0103,0.07545 v 0.01029 l -0.0103,0.07545 -0.003,0.01029 -0.0103,0.07888 -0.003,0.01029 -0.0103,0.07545 -0.003,0.01029 -0.0103,0.07545 v 0.01029 l -0.0103,0.07545 v 0.01029 l -0.0103,0.07545 -0.003,0.01029 -0.0103,0.07545 -0.003,0.01029 -0.0137,0.07545 v 0.0069 l -0.0103,0.07545 v 0.0069 l -0.0137,0.07545 -0.003,0.01029 -0.0103,0.07545 -0.003,0.01029 -0.0103,0.07545 v 0.0069 l -0.0137,0.07545 v 0.0069 l -0.0137,0.07544 v 0.0069 l -0.0137,0.07545 v 0.01029 l -0.0137,0.07202 -0.003,0.01029 -0.0137,0.07202 -0.003,0.01029 -0.0137,0.07545 -0.003,0.01029 -0.0171,0.07545 v 0.0069 l -0.0172,0.07545 v 0.0069 l -0.0137,0.07202 v 0.01029 l -0.0171,0.07545 v 0.0069 l -0.0137,0.07545 -0.003,0.0069 -0.0172,0.07202 v 0.0069 l -0.0171,0.07202 v 0.01029 l -0.0171,0.07202 -0.003,0.01029 -0.0172,0.07202 -0.003,0.01029 -0.0171,0.07202 -0.003,0.0069 -0.0172,0.07202 -0.003,0.0069 -0.0172,0.07202 -0.003,0.01029 -0.0206,0.07202 -0.003,0.01029 -0.0171,0.07202 -0.003,0.01029 -0.0206,0.07202 v 0.01029 l -0.0206,0.07545 -0.003,0.01029 -0.0206,0.07202 v 0.01029 l -0.0206,0.07202 -0.003,0.01029 -0.0206,0.07202 -0.003,0.01029 -0.0206,0.07545 -0.003,0.0069 -0.0206,0.07202 -0.003,0.0069 -0.0206,0.07201 -0.003,0.01029 -0.024,0.07202 -0.003,0.01029 -0.0206,0.07202 -0.003,0.0069 -0.0206,0.07202 -0.003,0.01029 -0.0206,0.07202 -0.003,0.0069 -0.024,0.07202 -0.003,0.01029 -0.024,0.07202 -0.003,0.01029 -0.024,0.07202 -0.003,0.01029 -0.024,0.07201 -0.003,0.01029 -0.024,0.07202 -0.003,0.0069 -0.024,0.07202 -0.003,0.01029 -0.024,0.07202 -0.003,0.01029 -0.024,0.07202 -0.003,0.0069 -0.024,0.07202 -0.003,0.01029 -0.024,0.07202 -0.003,0.01029 -0.0274,0.06859 -0.003,0.01029 -0.024,0.06859 -0.003,0.01029 -0.024,0.06859 -0.003,0.01029 -0.024,0.07202 -0.003,0.01029 -0.0274,0.07202 -0.003,0.01029 -0.0274,0.06859 -0.003,0.01029 -0.0274,0.06859 -0.003,0.01029 -0.0274,0.06859 -0.003,0.01029 -0.0274,0.06859 -0.003,0.01029 -0.0274,0.06859 -0.003,0.01029 -0.0274,0.06859 -0.003,0.0069 -0.0309,0.06859 -0.003,0.01029 -0.0309,0.07202 -0.003,0.01029 -0.0274,0.06859 -0.003,0.01029 -0.0309,0.06859 -0.003,0.01029 -0.0309,0.06859 -0.003,0.01029 -0.0309,0.06859 -0.003,0.0069 -0.0309,0.06859 -0.003,0.01029 -0.0309,0.06859 -0.003,0.0069 -0.0309,0.06859 -0.003,0.0069 -0.0309,0.06859 -0.003,0.0069 -0.0309,0.06859 -0.003,0.0069 -0.0343,0.06859 -0.003,0.0069 -0.0343,0.06516 -0.003,0.01029 -0.0309,0.06859 -0.003,0.0069 -0.0343,0.06516 -0.003,0.01029 -0.0309,0.06859 -0.003,0.0069 -0.0343,0.06859 -0.003,0.01029 -0.0343,0.06859 -0.003,0.0069 -0.0343,0.06516 -0.003,0.0069 -0.0343,0.06859 -0.003,0.01029 -0.0343,0.06859 -0.003,0.01029 -0.0343,0.06859 -0.007,0.01029 -0.0343,0.06516 -0.003,0.0069 -0.0343,0.06859 -0.003,0.01029 -0.0343,0.06858 -0.003,0.0103 -0.0377,0.0652 -0.007,0.007 -0.0377,0.0651 -0.003,0.007 -0.0377,0.0652 -0.003,0.007 -0.0377,0.0652 -0.003,0.007 -0.0377,0.0652 -0.003,0.007 -0.0377,0.0652 -0.003,0.0103 -0.0377,0.0652 -0.003,0.007 -0.0377,0.0652 -0.003,0.0103 -0.0377,0.0652 -0.007,0.007 -0.0377,0.0652 -0.007,0.007 -0.0377,0.0652 -0.003,0.007 -0.0377,0.0652 -0.003,0.0103 -0.0411,0.0652 -0.003,0.007 -0.0377,0.0617 -0.003,0.0103 -0.0377,0.0617 -0.007,0.007 -0.0412,0.0652 -0.003,0.0103 -0.0412,0.0617 -0.007,0.007 -0.0412,0.0617 -0.003,0.007 -0.0412,0.0652 -0.007,0.0103 -0.0412,0.0617 -0.007,0.007 -0.0412,0.0617 -0.003,0.007 -0.0412,0.0652 -0.003,0.007 -0.0412,0.0617 -0.007,0.007 -0.0446,0.0617 -0.003,0.007 -0.0412,0.0617 -0.003,0.007 -0.0446,0.0617 -0.003,0.007 -0.0412,0.0617 -0.007,0.007 -0.0411,0.0617 -0.007,0.007 -0.0446,0.0617 -0.007,0.007 -0.0412,0.0617 -0.003,0.007 -0.0446,0.0617 -0.007,0.0103 -0.0412,0.0617 -0.007,0.007 -0.0446,0.0617 -0.007,0.007 -0.0446,0.0617 -0.007,0.007 -0.0446,0.0617 -0.007,0.007 -0.0446,0.0617 -0.003,0.007 -0.0446,0.0583 -0.007,0.007 -0.0446,0.0583 -0.003,0.007 -0.048,0.0583 -0.007,0.007 -0.0446,0.0583 -0.003,0.007 -0.0446,0.0617 -0.007,0.007 -0.048,0.0617 -0.007,0.007 -0.048,0.0583 -0.007,0.007 -0.048,0.0583 -0.003,0.007 -0.048,0.0583 -0.007,0.007 -0.048,0.0583 -0.007,0.007 -0.048,0.0583 -0.007,0.007 -0.048,0.0583 -0.007,0.007 -0.048,0.0583 -0.003,0.007 -0.048,0.0583 -0.007,0.007 -0.0514,0.0583 -0.007,0.007 -0.048,0.0583 -0.007,0.007 -0.048,0.0583 -0.007,0.007 -0.048,0.0583 -0.007,0.007 -0.048,0.0583 -0.007,0.007 -0.048,0.0549 -0.007,0.007 -0.0514,0.0583 -0.007,0.007 -0.048,0.0583 -0.007,0.007 -0.0514,0.0583 -0.007,0.007 -0.048,0.0583 -0.007,0.007 -0.0514,0.0549 -0.007,0.007 -0.0514,0.0549 -0.007,0.007 -0.0514,0.0549 -0.007,0.007 -0.0514,0.0549 -0.007,0.007 -0.0514,0.0549 -0.007,0.007 -0.0514,0.0549 -0.007,0.007 -0.0514,0.0549 -0.007,0.007 -0.0514,0.0549 -0.007,0.007 -0.0549,0.0549 -0.007,0.007 -0.0514,0.0549 -0.007,0.007 -0.0514,0.0514 -0.007,0.007 -0.0549,0.0549 -0.0103,0.007 -0.0549,0.0549 -0.007,0.007 -0.0549,0.0514 -0.007,0.007 -0.0549,0.0549 -0.007,0.007 -0.0549,0.0514 -0.007,0.007 -0.0549,0.0514 -0.007,0.007 -0.0549,0.0514 -0.007,0.007 -0.0549,0.0514 -0.007,0.007 -0.0549,0.0514 -0.007,0.007 -0.0549,0.0514 -0.007,0.007 -0.0583,0.0514 -0.007,0.003 -0.0549,0.0514 -0.007,0.007 -0.0583,0.0514 -0.007,0.007 -0.0583,0.0514 -0.007,0.003 -0.0583,0.0514 -0.007,0.007 -0.0583,0.048 -0.0103,0.007 -0.0583,0.048 -0.007,0.007 -0.0583,0.0514 -0.007,0.007 -0.0583,0.0514 -0.007,0.007 -0.0583,0.0514 -0.007,0.007 -0.0583,0.048 -0.007,0.007 -0.0617,0.048 -0.007,0.003 -0.0583,0.048 -0.007,0.007 -0.0583,0.048 -0.0103,0.007 -0.0583,0.048 -0.007,0.007 -0.0583,0.048 -0.007,0.007 -0.0583,0.048 -0.007,0.007 -0.0617,0.048 -0.007,0.007 -0.0583,0.0446 -0.007,0.007 -0.0617,0.048 -0.007,0.007 -0.0617,0.048 -0.007,0.007 -0.0617,0.048 -0.007,0.007 -0.0617,0.048 -0.007,0.003 -0.0617,0.0446 -0.007,0.003 -0.0617,0.0446 -0.007,0.003 -0.0617,0.0446 -0.0103,0.003 -0.0617,0.0446 -0.007,0.007 -0.0617,0.0446 -0.007,0.007 -0.0617,0.0446 -0.007,0.007 -0.0617,0.0446 -0.0103,0.007 -0.0617,0.0446 -0.007,0.003 -0.0651,0.0446 -0.0103,0.003 -0.0652,0.0446 -0.007,0.007 -0.0652,0.0446 -0.007,0.007 -0.0652,0.0412 -0.007,0.007 -0.0652,0.0446 -0.007,0.007 -0.0617,0.0446 -0.0103,0.007 -0.0652,0.0412 -0.007,0.003 -0.0652,0.0412 -0.0103,0.003 -0.0652,0.0411 -0.007,0.007 -0.0652,0.0412 -0.007,0.007 -0.0652,0.0412 -0.007,0.003 -0.0652,0.0412 -0.0103,0.003 -0.0652,0.0412 -0.007,0.007 -0.0652,0.0412 -0.0103,0.003 -0.0652,0.0412 -0.0103,0.007 -0.0652,0.0412 -0.0103,0.007 -0.0686,0.0412 -0.007,0.007 -0.0652,0.0377 -0.0103,0.003 -0.0652,0.0377 -0.007,0.007 -0.0686,0.0412 -0.0103,0.007 -0.0686,0.0377 -0.007,0.007 -0.0652,0.0377 -0.0103,0.003 -0.0686,0.0377 -0.0103,0.003 -0.0686,0.0377 -0.007,0.003 -0.0652,0.0377 -0.003,0.003 -39.756309,22.15352 h -0.0034 l -0.06173,0.0377 -0.01029,0.003 -0.06516,0.0377 -0.01029,0.007 -0.06516,0.0343 -0.01029,0.003 -0.06516,0.0343 -0.0069,0.003 -0.06516,0.0343 -0.01029,0.003 -0.06516,0.0343 -0.01029,0.003 -0.06516,0.0343 -0.01029,0.003 -0.06516,0.0343 -0.0069,0.003 -0.06516,0.0343 -0.0069,0.003 -0.06516,0.0309 -0.0069,0.003 -0.06859,0.0343 -0.0069,0.007 -0.06516,0.0343 -0.0069,0.003 -0.06516,0.0309 -0.0069,0.003 -0.06516,0.0309 -0.0069,0.003 -0.06516,0.0343 -0.0069,0.003 -0.06859,0.0309 -0.0069,0.003 -0.06516,0.0309 -0.0069,0.003 -0.06859,0.0309 -0.0069,0.003 -0.06516,0.0309 -0.0069,0.003 -0.06516,0.0309 -0.01029,0.007 -0.06859,0.0309 -0.0069,0.003 -0.06859,0.0274 -0.0069,0.003 -0.06859,0.0309 -0.0069,0.007 -0.06859,0.0309 -0.01029,0.003 -0.06516,0.0274 -0.0069,0.003 -0.06859,0.0309 -0.0069,0.003 -0.06859,0.0274 -0.0069,0.003 -0.06859,0.0274 -0.0069,0.003 -0.06859,0.0274 -0.01029,0.003 -0.06859,0.0274 -0.01029,0.003 -0.06859,0.0274 -0.01029,0.003 -0.06516,0.0274 -0.0069,0.003 -0.06859,0.024 -0.0069,0.003 -0.06859,0.0274 -0.01029,0.003 -0.06859,0.0274 -0.01029,0.003 -0.06859,0.0274 -0.01029,0.003 -0.06859,0.024 -0.01029,0.003 -0.06859,0.0274 -0.01029,0.003 -0.06859,0.024 -0.0069,0.003 -0.06859,0.024 -0.01029,0.003 -0.06859,0.024 -0.01029,0.003 -0.06859,0.024 -0.01029,0.003 -0.06859,0.024 -0.0069,0.003 -0.06859,0.024 -0.06859,0.024 -0.01029,0.003 -0.07202,0.0206 -0.01029,0.003 -0.06859,0.0206 -0.0069,0.003 -0.06859,0.024 -0.0069,0.003 -0.07202,0.0206 -0.01029,0.003 -0.06859,0.0206 -0.01029,0.003 -0.06859,0.0206 -0.01029,0.003 -0.07202,0.024 -0.01372,0.003 -0.137173,0.0411 -0.01715,0.007 -0.140603,0.0411 -0.01715,0.003 -0.140603,0.0411 -0.01715,0.003 -0.140603,0.0377 -0.01715,0.007 -0.140603,0.0377 -0.01715,0.003 -0.140603,0.0377 -0.02058,0.003 -0.140603,0.0343 -0.01715,0.003 -0.140603,0.0343 -0.02058,0.003 -0.140603,0.0343 -0.01715,0.003 -0.140602,0.0309 -0.01715,0.003 -0.144032,0.0309 -0.02058,0.003 -0.144032,0.0309 -0.01715,0.003 -0.144032,0.0274 -0.01715,0.003 -0.140603,0.024 -0.01715,0.003 -0.140603,0.0274 -0.01715,0.003 -0.144032,0.024 -0.01715,0.003 -0.144032,0.024 -0.01715,0.003 -0.144032,0.0206 -0.01715,0.003 -0.144033,0.0206 -0.01715,0.003 -0.144032,0.0206 -0.01715,0.003 -0.144032,0.0206 -0.02058,0.003 -0.144032,0.0171 -0.01715,0.003 -0.144032,0.0172 -0.01715,0.003 -0.144032,0.0171 -0.144032,0.0137 h -0.01715 l -0.144032,0.0103 -0.01715,0.003 -0.144032,0.0103 h -0.01715 l -0.144032,0.0103 h -0.01715 l -0.144033,0.0103 -0.02058,0.003 -0.144032,0.0103 h -0.01715 l -0.144033,0.007 h -0.01715 l -0.144032,0.007 h -0.02058 l -0.144033,0.003 h -0.01715 l -0.144032,0.003 h -0.01715 l -0.144032,0.003 h -0.507542 l -0.144032,-0.003 -0.144032,-0.003 h -0.02058 l -0.144033,-0.003 h -0.0031 l -0.144032,-0.007 -0.01715,-0.003 -0.144032,-0.007 h -0.01715 l -0.144032,-0.007 -0.01715,-0.003 -0.144032,-0.007 h -0.01715 l -0.144033,-0.0103 -0.01715,-0.003 -0.144032,-0.0137 -0.02058,-0.003 -0.144033,-0.0137 -0.02058,-0.003 -0.144033,-0.0137 -0.01715,-0.003 -0.144032,-0.0137 h -0.01715 l -0.144032,-0.0137 -0.01715,-0.003 -0.144032,-0.0171 h -0.02058 l -0.144032,-0.0171 -0.02058,-0.003 -0.144033,-0.0206 -0.01715,-0.003 -0.144032,-0.0206 -0.01715,-0.003 -0.144032,-0.0206 -0.01715,-0.003 -0.144032,-0.0206 -0.01715,-0.003 -0.140603,-0.024 h -0.01029 l -0.144033,-0.0274 -0.01852,-0.003 -0.140603,-0.0274 -0.01715,-0.003 -0.140602,-0.0274 -0.01715,-0.003 -0.140603,-0.0274 -0.02058,-0.003 -0.14266,-0.0274 -0.01715,-0.003 -0.140603,-0.0309 -0.02058,-0.007 -0.140603,-0.0309 -0.01715,-0.003 -0.140603,-0.0343 -0.0192,-0.007 -0.140603,-0.0343 -0.01715,-0.007 -0.140603,-0.0377 -0.01715,-0.003 -0.140603,-0.0377 -0.01715,-0.007 -0.140603,-0.0377 -0.01715,-0.007 -0.140603,-0.0377 -0.01715,-0.007 -0.140603,-0.0412 -0.02058,-0.007 -0.140603,-0.0411 -0.01715,-0.007 -0.140603,-0.0412 -0.01715,-0.007 -0.140603,-0.0412 -0.01715,-0.003 -0.136488,-0.0446 -0.01372,-0.003 -0.07202,-0.024 h -0.0093 l -0.06859,-0.0206 -0.01029,-0.003 -0.06859,-0.024 -0.01029,-0.003 -0.06859,-0.024 -0.01029,-0.003 -0.06859,-0.024 -0.01029,-0.003 -0.06859,-0.024 -0.01029,-0.003 -0.06859,-0.024 -0.0069,-0.003 -0.06859,-0.024 -0.0069,-0.003 -0.06859,-0.024 -0.0069,-0.003 -0.06859,-0.0274 -0.01029,-0.003 -0.06859,-0.0274 -0.01029,-0.003 -0.06859,-0.0274 -0.0069,-0.003 -0.06859,-0.0274 -0.01029,-0.003 -0.06859,-0.0274 -0.0069,-0.003 -0.06859,-0.0274 -0.01029,-0.003 -0.06859,-0.0274 -0.0069,-0.003 -0.06859,-0.0274 -0.0069,-0.003 -0.06859,-0.0274 -0.01029,-0.003 -0.06859,-0.0274 -0.01029,-0.003 -0.06859,-0.0274 -0.01029,-0.003 -0.06859,-0.0274 -0.01029,-0.003 -0.06859,-0.0274 -0.0069,-0.003 -0.06859,-0.0309 -0.01029,-0.003 -0.06516,-0.0309 -0.0069,-0.003 -0.06859,-0.0309 -0.0069,-0.003 -0.06859,-0.0309 -0.0069,-0.003 -0.06859,-0.0274 -0.01029,-0.003 -0.06516,-0.0309 -0.01029,-0.003 -0.06859,-0.0309 -0.01029,-0.003 -0.06516,-0.0309 -0.0069,-0.007 -0.06516,-0.0309 -0.0069,-0.003 -0.06516,-0.0309 -0.0069,-0.003 -0.06859,-0.0309 -0.0069,-0.007 -0.06859,-0.0343 -0.0069,-0.007 -0.06516,-0.0309 -0.01029,-0.003 -0.06859,-0.0309 -0.0069,-0.007 -0.06516,-0.0343 -0.01029,-0.003 -0.06859,-0.0343 -0.0069,-0.003 -0.06516,-0.0343 -0.01029,-0.003 -0.06516,-0.0343 -0.0069,-0.003 -0.06516,-0.0343 -0.01029,-0.007 -0.06516,-0.0343 -0.0069,-0.003 -0.06516,-0.0343 -0.0069,-0.003 -0.06516,-0.0343 -0.01029,-0.007 -0.06516,-0.0343 -0.0069,-0.003 -0.06516,-0.0377 -0.01029,-0.007 -0.06516,-0.0343 -0.01029,-0.003 -0.06516,-0.0343 -0.01029,-0.003 -0.06516,-0.0343 -0.01029,-0.003 -0.06516,-0.0377 -0.01029,-0.003 -0.06173,-0.0377 -0.01029,-0.003 -0.06173,-0.0377 -0.0034,-0.003 -35.939451,-20.97726 -0.0034,-0.003 -0.07544,-0.0446 -0.0069,-0.003 -0.07545,-0.0446 -0.01029,-0.003 -0.07888,-0.0446 -0.01029,-0.003 -0.07545,-0.048 -0.0069,-0.003 -0.07545,-0.048 -0.0069,-0.007 -0.07545,-0.048 -0.0069,-0.007 -0.07545,-0.048 -0.01029,-0.003 -0.07545,-0.0446 -0.01029,-0.007 -0.07545,-0.048 -0.0069,-0.007 -0.07545,-0.048 h 0.01749 l -0.07545,-0.048 -0.01029,-0.007 -0.07545,-0.048 -0.0069,-0.007 -0.07545,-0.048 -0.0096,-0.007 -0.07545,-0.0514 -0.01029,-0.007 -0.07545,-0.0514 -0.0069,-0.007 -0.07545,-0.048 -0.0069,-0.007 -0.07545,-0.0514 -0.0069,-0.007 -0.07545,-0.0514 -0.0069,-0.007 -0.07202,-0.0514 -0.01029,-0.007 -0.07373,-0.0514 -0.0069,-0.007 -0.07202,-0.0514 -0.0086,-0.007 -0.07202,-0.0514 -0.0093,-0.007 -0.07202,-0.0514 -0.0069,-0.003 -0.07202,-0.0514 -0.0069,-0.007 -0.07099,-0.0514 -0.0069,-0.007 -0.07064,-0.0514 -0.01029,-0.003 -0.072016,-0.0514 -0.00686,-0.007 -0.072016,-0.0549 -0.00686,-0.007 -0.072016,-0.0514 -0.00892,-0.007 -0.072016,-0.0549 -0.00892,-0.007 -0.068587,-0.0549 -0.00686,-0.007 -0.068587,-0.0549 -0.00686,-0.003 -0.068587,-0.0549 -0.00686,-0.007 -0.068587,-0.0549 -0.00686,-0.007 -0.068587,-0.0549 -0.00686,-0.007 -0.068587,-0.0549 -0.00686,-0.007 -0.068587,-0.0549 -0.00686,-0.007 -0.068587,-0.0549 -0.00686,-0.007 -0.068587,-0.0583 -0.00686,-0.003 -0.068587,-0.0549 -0.00686,-0.007 -0.066529,-0.0549 -0.00686,-0.007 -0.068587,-0.0583 -0.00686,-0.007 -0.068587,-0.0549 -0.00686,-0.007 -0.068587,-0.0583 -0.00686,-0.003 -0.067215,-0.0549 -0.00686,-0.007 -0.065157,-0.0549 -0.00686,-0.007 -0.065157,-0.0583 -0.00686,-0.007 -0.065157,-0.0583 -0.00686,-0.007 -0.065157,-0.0583 -0.00686,-0.007 -0.065157,-0.0583 -0.00686,-0.007 -0.065157,-0.0583 -0.00686,-0.007 -0.065157,-0.0617 -0.00686,-0.003 -0.065157,-0.0583 -0.010288,-0.007 -0.063443,-0.0617 -0.00686,-0.007 -0.065157,-0.0583 -0.00686,-0.007 -0.063786,-0.0617 -0.00686,-0.007 -0.061728,-0.0617 -0.00686,-0.007 -0.061728,-0.0617 -0.00686,-0.007 -0.065157,-0.0617 -0.00686,-0.007 -0.065157,-0.0617 -0.00686,-0.003 -0.061728,-0.0617 -0.00686,-0.007 -0.061728,-0.0617 -0.00686,-0.007 -0.061728,-0.0617 -0.00686,-0.007 -0.061728,-0.0617 -0.00686,-0.007 -0.061728,-0.0617 -0.00686,-0.007 -0.061728,-0.0617 -0.00686,-0.007 -0.058299,-0.0617 -0.00686,-0.007 -0.061728,-0.0617 -0.00686,-0.007 -0.061728,-0.0652 -0.00686,-0.007 -0.058299,-0.0652 -0.00686,-0.007 -0.058299,-0.0652 -0.00686,-0.007 -0.061728,-0.0652 -0.00686,-0.007 -0.058299,-0.0652 -0.00686,-0.007 -0.058299,-0.0652 -0.00686,-0.007 -0.058299,-0.0652 -0.00686,-0.007 -0.058299,-0.0652 -0.00686,-0.007 -0.058299,-0.0652 -0.00343,-0.007 -0.054869,-0.0652 -0.00686,-0.007 -0.058299,-0.0652 -0.00686,-0.007 -0.061728,-0.0686 -0.00686,-0.007 -0.058299,-0.0652 -0.00686,-0.007 -0.058299,-0.0686 -0.00686,-0.007 -0.054869,-0.0652 -0.00343,-0.007 -0.054869,-0.0652 -0.00686,-0.007 -0.054869,-0.0686 -0.00686,-0.007 -0.058299,-0.0686 -0.00686,-0.007 -0.054869,-0.0652 -0.00686,-0.007 -0.058299,-0.0652 -0.00686,-0.007 -0.054869,-0.0652 -0.00686,-0.007 -0.054869,-0.0686 -0.00686,-0.007 -0.054869,-0.0686 -0.00686,-0.007 -0.054869,-0.0686 -0.00686,-0.007 -0.054869,-0.0686 -0.00686,-0.007 -0.054869,-0.0686 -0.00343,-0.007 -0.05144,-0.0686 -0.00686,-0.007 -0.05144,-0.0686 -0.00343,-0.007 -0.05144,-0.0686 -0.00686,-0.007 -0.05144,-0.072 -0.00686,-0.007 -0.05144,-0.0686 -0.00686,-0.007 -0.05144,-0.0686 -0.00343,-0.007 -0.05144,-0.072 -0.00343,-0.007 -0.05144,-0.072 -0.00343,-0.007 -0.05144,-0.0686 -0.00343,-0.007 -0.05144,-0.0686 -0.00686,-0.007 -0.05144,-0.072 -0.00686,-0.007 -0.05144,-0.072 -0.00686,-0.0103 -0.048011,-0.072 -0.00686,-0.007 -0.048011,-0.072 -0.00686,-0.007 -0.048011,-0.072 -0.00686,-0.007 -0.048011,-0.072 -0.00343,-0.007 -0.048011,-0.072 -0.00686,-0.0103 -0.048011,-0.072 -0.00686,-0.007 -0.048011,-0.072 -0.00686,-0.007 -0.048011,-0.072 -0.00686,-0.007 -0.048011,-0.072 -0.00686,-0.007 -0.044581,-0.072 -0.00343,-0.007 -0.044581,-0.072 -0.00686,-0.0103 -0.048011,-0.072 -0.00686,-0.0103 -0.048011,-0.072 -0.00343,-0.007 -0.048011,-0.0755 -0.00343,-0.0103 -0.044581,-0.072 -0.00686,-0.007 -0.044581,-0.072 -0.00686,-0.007 -0.044581,-0.0754 -0.00686,-0.0103 -0.044581,-0.072 -0.00343,-0.007 -0.044581,-0.0755 -0.00343,-0.007 -0.044581,-0.072 -0.00686,-0.0103 -0.044581,-0.0754 -0.00686,-0.0103 -0.044581,-0.0754 -0.00686,-0.0103 -0.041152,-0.0754 -0.00686,-0.007 -0.044581,-0.0755 -0.00343,-0.007 -0.041152,-0.0754 -0.00343,-0.007 -0.041152,-0.0754 -0.00343,-0.0103 -0.041152,-0.0754 -0.00686,-0.0103 -0.041152,-0.07544 -0.00343,-0.01029 -0.041152,-0.07887 -0.00343,-0.0069 -0.041152,-0.07545 -0.00343,-0.01029 -0.041152,-0.07545 -0.00343,-0.01029 -0.041152,-0.07545 -0.00343,-0.01029 -0.037723,-0.07887 -0.00343,-0.0069 -0.041152,-0.07887 -0.00343,-0.01029 -0.041152,-0.07887 -0.00686,-0.0069 -0.037723,-0.07888 -0.00343,-0.0069 -0.037723,-0.07545 -0.00343,-0.01029 -0.037723,-0.07887 v 0.0034 l -0.037723,-0.07887 -0.00686,-0.01029 -0.037723,-0.07887 -0.00343,-0.01029 -0.037723,-0.07545 -0.00343,-0.01029 -0.037723,-0.07887 -0.00343,-0.0069 -0.037723,-0.07888 -0.00343,-0.0069 -0.034293,-0.07887 -0.00343,-0.0069 -0.037723,-0.07887 -0.00343,-0.0069 -0.037723,-0.07887 -0.00343,-0.0069 -0.037723,-0.07888 -0.00343,-0.01029 -0.034293,-0.07887 -0.00343,-0.0069 -0.037723,-0.07887 -0.00343,-0.01029 -0.037723,-0.07887 -0.00343,-0.0069 -0.034293,-0.07887 -0.00343,-0.0069 -0.034293,-0.07887 -0.00343,-0.01029 -0.034293,-0.07887 -0.00343,-0.0069 -0.030864,-0.07887 -0.00343,-0.0069 -0.034293,-0.07887 -0.00343,-0.01029 -0.030864,-0.0823 -0.00343,-0.0069 -0.034293,-0.07887 -0.00343,-0.01029 -0.030864,-0.07545 -0.00343,-0.01029 -0.034293,-0.0823 -0.00343,-0.0069 -0.030864,-0.0823 -0.00343,-0.01029 -0.030864,-0.0823 -0.00343,-0.0069 -0.030864,-0.08231 -0.00343,-0.01029 -0.030864,-0.08231 -0.00343,-0.0069 -0.030864,-0.0823 -0.00343,-0.0069 -0.027435,-0.0823 -0.00343,-0.01029 -0.030864,-0.0823 -0.00343,-0.0069 -0.027435,-0.0823 -0.00343,-0.01029 -0.027435,-0.0823 -0.00343,-0.01029 -0.030864,-0.0823 -0.00343,-0.01029 -0.027435,-0.0823 -0.00343,-0.0069 -0.027435,-0.0823 -0.00343,-0.0069 -0.027435,-0.0823 -0.00343,-0.01029 -0.027435,-0.0823 -0.00343,-0.01029 -0.027435,-0.0823 -0.00343,-0.01029 -0.027435,-0.0823 -0.00343,-0.01029 -0.027435,-0.0823 -0.00309,-0.0099 -0.024005,-0.0823 -0.00343,-0.0069 -0.027435,-0.08573 -0.00343,-0.01029 -0.024005,-0.08573 -0.00343,-0.01029 -0.024005,-0.0823 -0.00343,-0.01029 -0.024005,-0.0823 -0.00343,-0.01029 -0.024005,-0.08573 -0.00343,-0.01029 -0.024005,-0.08573 -0.00343,-0.0069 -0.024005,-0.08573 -0.00343,-0.0034 -0.024005,-0.08573 -0.00343,-0.0069 -0.020576,-0.0823 -0.00343,-0.0069 -0.020576,-0.0823 v -0.0069 l -0.024005,-0.08573 v -0.01029 l -0.020576,-0.08231 -0.00343,-0.01029 -0.020576,-0.0823 -0.00343,-0.01029 -0.020576,-0.08573 h 0.003429 l -0.020576,-0.08573 -0.003429,-0.0069 -0.020576,-0.08573 -0.003429,-0.0069 -0.020576,-0.08573 -0.00343,-0.0069 -0.020576,-0.08573 0.00343,-0.0034 -0.020576,-0.08573 -0.00343,-0.01029 -0.020576,-0.08573 -0.00343,-0.01029 -0.017147,-0.08573 -0.00343,-0.01029 -0.020576,-0.08573 -0.00343,-0.0069 -0.017147,-0.08573 -0.00343,-0.01029 -0.017147,-0.08573 -0.00343,-0.01029 -0.017147,-0.08573 -0.017147,-0.08573 v -0.01029 l -0.017147,-0.08916 v -0.01029 l -0.017147,-0.08573 -0.00343,-0.01029 -0.020576,-0.08231 v -0.01029 l -0.017147,-0.09259 -0.00343,-0.01029 -0.017147,-0.08916 -0.00343,-0.01029 -0.013717,-0.08573 -0.00343,-0.01029 -0.013717,-0.08573 v -0.01029 l -0.013717,-0.08573 v -0.01029 l -0.013717,-0.08573 -0.00343,-0.01029 -0.013717,-0.08573 v 0.0034 l -0.013717,-0.08573 v -0.0069 l -0.013717,-0.08573 v -0.01029 l -0.013717,-0.08573 v -0.01029 l -0.013717,-0.08573 v -0.0069 l -0.010288,-0.08916 v -0.01029 l -0.010288,-0.08573 v -0.0069 l -0.013717,-0.08916 -0.00343,-0.01029 -0.010288,-0.08573 v -0.01029 l -0.010288,-0.08916 -0.00343,-0.01029 -0.010288,-0.08916 v -0.01029 l -0.010288,-0.08916 -0.00343,-0.01029 -0.010288,-0.08916 v -0.01029 l -0.010288,-0.08916 -0.00343,-0.0069 -0.010288,-0.08916 -0.00686,-0.08916 v -0.01029 l -0.010288,-0.08916 -0.00343,-0.01029 -0.010288,-0.08916 v -0.01029 l -0.00686,-0.08916 -0.00343,-0.01029 -0.00686,-0.08916 v -0.01029 l -0.00686,-0.08916 v -0.01029 l -0.00686,-0.08916 -0.00686,-0.08916 v -0.01029 l -0.00686,-0.08916 v -0.01029 l -0.00686,-0.08916 v -0.110768 l -0.00343,-0.08916 v -0.01029 l -0.00343,-0.08916 v -0.01029 l -0.00343,-0.08916 -0.00343,-0.01029 -0.00343,-0.08916 v -0.09602 l -0.00343,-0.08916 v -0.01029 l -0.00343,-0.08916 V 45.750429 l 0.00343,-0.08573 v -0.109738 l 0.00343,-0.08916 v -0.315499 l 0.00343,-0.08916 v -0.0069 l 0.00343,-0.08916 v -0.01029 l 0.00343,-0.08916 v -0.01029 l 0.00343,-0.08916 v -0.0069 l 0.00343,-0.08916 v -0.01029 l 0.00343,-0.08916 v -0.01029 l 0.00686,-0.09259 v -0.01029 l 0.00686,-0.08916 v -0.0069 l 0.00343,-0.08916 v -0.01029 l 0.00686,-0.08916 v -0.01029 l 0.00343,-0.08916 v -0.01029 l 0.00343,-0.08916 v -0.01029 l 0.00686,-0.08916 v -0.01029 l 0.00686,-0.08916 v -0.01029 l 0.010288,-0.08916 v -0.01029 l 0.00686,-0.08916 0.00343,-0.0069 0.00686,-0.08916 v -0.0069 l 0.010288,-0.08916 v -0.0069 l 0.010288,-0.08916 0.00343,-0.01029 0.010288,-0.08916 v -0.01029 l 0.010288,-0.08916 v -0.0069 l 0.010288,-0.08916 v -0.0069 l 0.010288,-0.08916 0.00343,-0.01029 0.010288,-0.08916 v -0.01029 l 0.010288,-0.08573 v -0.01029 l 0.010288,-0.08916 v -0.01029 l 0.010288,-0.08916 0.00343,-0.01029 0.010288,-0.08573 v -0.01029 l 0.013717,-0.08916 v -0.01029 l 0.010288,-0.08916 0.00343,-0.01029 0.010288,-0.08573 0.00343,-0.01029 0.013717,-0.08916 0.00343,-0.0069 0.013717,-0.08916 v -0.0069 l 0.013717,-0.08916 v -0.0069 l 0.013717,-0.08573 0.00343,-0.01029 0.013717,-0.08573 v -0.01029 l 0.024005,-0.08916 0.00343,-0.01029 0.013717,-0.08573 v -0.01029 l 0.017147,-0.08573 v -0.0069 l 0.017147,-0.08573 v -0.0069 l 0.017147,-0.08916 0.00343,-0.0069 0.017147,-0.08573 0.00343,-0.0069 0.017147,-0.08573 0.00343,-0.01029 0.017147,-0.08573 0.00343,-0.01029 0.017147,-0.08573 v -0.01029 l 0.017147,-0.08573 v -0.0069 l 0.017147,-0.08573 0.00343,-0.0069 0.017147,-0.08573 0.00343,-0.0069 0.020576,-0.08573 v -0.01029 l 0.020576,-0.08573 0.00343,-0.01029 0.017147,-0.08573 0.00343,-0.01029 0.020576,-0.08573 v -0.01029 l 0.020576,-0.08573 0.003429,-0.01029 0.020576,-0.08573 v -0.01029 l 0.020576,-0.08573 0.00343,-0.0069 0.020576,-0.08573 v -0.0069 l 0.020576,-0.08573 0.00343,-0.01029 0.024005,-0.08573 v -0.0069 l 0.024005,-0.08573 v -0.0069 l 0.024005,-0.08573 0.00343,-0.01029 0.024005,-0.08573 v -0.01029 l 0.024005,-0.08573 0.00343,-0.01029 0.024005,-0.0823 0.00343,-0.0069 0.024005,-0.08573 0.00343,-0.0086 0.024005,-0.08573 0.00343,-0.01029 0.024005,-0.08368 0.00343,-0.0069 0.027435,-0.08573 0.00343,-0.0069 0.024005,-0.0823 0.00343,-0.0069 0.024005,-0.08333 0.00343,-0.0069 0.024005,-0.08505 0.00343,-0.01029 0.027435,-0.08368 0.00343,-0.01029 0.027435,-0.0823 v -0.0069 l 0.027435,-0.0823 v -0.01029 l 0.027435,-0.0823 0.00343,-0.0069 0.027435,-0.0823 0.00343,-0.01029 0.027435,-0.0823 0.00343,-0.01029 0.027435,-0.0823 0.00343,-0.01029 0.027435,-0.0823 0.00343,-0.0069 0.030864,-0.0823 0.00343,-0.0069 0.027435,-0.0823 0.00343,-0.0086 0.027435,-0.0823 0.00343,-0.0069 0.030864,-0.0823 0.00343,-0.0069 0.030864,-0.0823 v -0.0069 l 0.030864,-0.0823 0.00343,-0.0069 0.030864,-0.0823 0.00343,-0.01029 0.030864,-0.0823 0.00343,-0.0069 0.030864,-0.0823 0.00343,-0.01029 0.034293,-0.07887 0.00343,-0.0069 0.034293,-0.0823 0.00343,-0.0069 0.034293,-0.0823 0.00343,-0.01029 0.034293,-0.08231 0.00343,-0.01029 0.034293,-0.0823 0.00343,-0.01029 0.034293,-0.0823 0.00343,-0.01029 0.034293,-0.0823 0.00343,-0.01029 0.034293,-0.0823 0.00343,-0.0086 0.034293,-0.07888 0.00343,-0.01029 0.034293,-0.07888 0.00343,-0.01029 0.034293,-0.0823 0.00343,-0.0069 0.037723,-0.0823 0.00343,-0.0069 0.037723,-0.07888 0.00343,-0.0069 0.034293,-0.07887 0.00343,-0.01029 0.037723,-0.07887 0.00343,-0.0069 0.037723,-0.07888 0.00343,-0.0069 0.037723,-0.07887 0.00343,-0.0069 0.037723,-0.07887 0.00343,-0.01029 0.037723,-0.07888 0.00343,-0.0069 0.037723,-0.07887 0.00343,-0.01029 0.037723,-0.07887 0.00343,-0.0069 0.037723,-0.07888 0.00343,-0.0069 0.037723,-0.07887 0.00343,-0.0069 0.037723,-0.07888 0.00343,-0.0069 0.041152,-0.07545 0.00343,-0.0069 0.041152,-0.07887 0.00686,-0.01029 0.041152,-0.07887 0.00343,-0.0069 0.041152,-0.07887 0.00343,-0.01029 0.041152,-0.07545 0.00343,-0.0069 0.041152,-0.07545 0.00343,-0.0069 0.041152,-0.07545 0.00343,-0.01029 0.041152,-0.07544 0.00686,-0.0069 0.041152,-0.07544 0.00343,-0.01029 0.041152,-0.07545 0.00686,-0.0069 0.041152,-0.07545 0.00343,-0.0069 0.041152,-0.07545 0.00686,-0.01029 0.044581,-0.07545 0.00343,-0.0069 0.041152,-0.07545 0.00343,-0.0069 0.044581,-0.07545 0.00343,-0.0069 0.044581,-0.07545 0.00343,-0.0069 0.044581,-0.07545 0.00686,-0.0069 0.044581,-0.07545 0.00343,-0.0069 0.044581,-0.07545 0.00686,-0.0069 0.044581,-0.07545 0.00343,-0.0069 0.044581,-0.07545 0.00686,-0.0069 0.044581,-0.07545 0.00343,-0.0069 0.048011,-0.07545 0.00686,-0.01029 0.048011,-0.07545 0.00343,-0.0069 0.044581,-0.07202 0.00686,-0.0069 0.048011,-0.07202 0.00686,-0.0069 0.044581,-0.07545 0.00343,-0.0069 0.048011,-0.07202 0.00343,-0.0069 0.048011,-0.07202 0.00686,-0.0069 0.048011,-0.07545 0.00686,-0.0069 0.048011,-0.07202 0.00343,-0.01029 0.048011,-0.07202 0.00343,-0.0069 0.048011,-0.07202 0.00343,-0.0069 0.05144,-0.07202 0.00686,-0.0069 0.048011,-0.07202 0.00686,-0.0069 0.05144,-0.07202 0.00343,-0.0069 0.05144,-0.07202 0.00343,-0.0069 0.05144,-0.07202 0.00343,-0.0069 0.05144,-0.07202 0.00686,-0.0069 0.05144,-0.07202 0.00343,-0.0069 0.05144,-0.07202 0.00686,-0.0069 0.05144,-0.06859 0.00343,-0.0069 0.05144,-0.07202 0.00686,-0.0069 0.05144,-0.06859 0.00686,-0.0069 0.05144,-0.06859 0.00686,-0.0069 0.05144,-0.06859 0.00686,-0.0069 0.05144,-0.06859 0.00343,-0.0069 0.05144,-0.06859 0.00686,-0.0069 0.054869,-0.06859 0.00686,-0.0069 0.054869,-0.06859 0.00686,-0.0069 0.054869,-0.06859 0.00686,-0.0069 0.054869,-0.06859 0.00686,-0.0069 0.054869,-0.06859 0.00686,-0.01029 0.054869,-0.06859 0.00343,-0.0069 0.054869,-0.06859 0.00686,-0.0069 0.054869,-0.06859 0.00686,-0.0069 0.054869,-0.06516 0.00686,-0.0069 0.054869,-0.06859 0.00686,-0.0069 0.054869,-0.06859 0.00686,-0.0069 0.058299,-0.06516 0.00686,-0.0069 0.054869,-0.06859 0.00686,-0.0069 0.054869,-0.06516 0.00686,-0.0069 0.054869,-0.06859 0.00686,-0.0069 0.058299,-0.06859 0.00343,-0.0069 0.058299,-0.06516 0.00686,-0.0069 0.058299,-0.06516 0.00686,-0.0069 0.058299,-0.06516 0.00686,-0.0069 0.058299,-0.06516 0.00343,-0.0069 0.058299,-0.06516 0.00686,-0.0069 0.058299,-0.06516 0.00686,-0.0069 0.058299,-0.06516 0.00343,-0.0069 0.058299,-0.06516 0.00686,-0.0069 0.061728,-0.06516 0.00343,-0.0069 0.061728,-0.06516 0.00686,-0.0069 0.065157,-0.06173 0.00686,-0.0069 0.061728,-0.06516 0.00686,-0.0069 0.061728,-0.06516 0.00686,-0.0069 0.061728,-0.06173 0.00686,-0.0069 0.061728,-0.06173 0.00686,-0.0069 0.061728,-0.06173 0.00686,-0.0069 0.065157,-0.06173 0.00686,-0.0069 0.061728,-0.06173 0.00686,-0.0069 0.061728,-0.06173 0.00686,-0.0069 0.061728,-0.06173 0.00686,-0.0069 0.061728,-0.06173 0.00686,-0.0069 0.061728,-0.06173 0.00686,-0.0069 0.061728,-0.06173 0.00686,-0.0069 0.061728,-0.06173 0.00686,-0.0069 0.065157,-0.0583 0.00686,-0.0069 0.065157,-0.0583 0.00686,-0.0069 0.065157,-0.06173 0.00686,-0.0069 0.065157,-0.06173 0.00686,-0.0034 0.065157,-0.0583 0.00686,-0.0034 0.065157,-0.0583 0.00686,-0.0069 0.065157,-0.0583 0.00686,-0.0069 0.065157,-0.0583 0.00686,-0.0069 0.065157,-0.0583 0.00686,-0.0034 0.068587,-0.0583 0.00686,-0.0069 0.068587,-0.0583 0.00686,-0.0069 0.068587,-0.0583 0.00686,-0.0069 0.068587,-0.05487 0.00686,-0.0069 0.068587,-0.05487 0.00686,-0.0069 0.065157,-0.05487 0.00686,-0.0069 0.068587,-0.05487 0.00686,-0.0069 0.068587,-0.05487 0.00686,-0.0034 0.068587,-0.05487 0.00686,-0.0069 0.068587,-0.05487 0.00686,-0.0069 0.068587,-0.05487 0.00686,-0.0069 0.072016,-0.05487 0.00686,-0.0069 0.068587,-0.05487 0.00686,-0.0069 0.072016,-0.05487 0.00686,-0.0069 0.072016,-0.05487 0.00686,-0.0069 0.068587,-0.05487 0.00686,-0.0034 0.072016,-0.05487 0.00686,-0.0069 0.068587,-0.05487 0.00686,-0.0069 0.072016,-0.05144 0.0069,-0.0069 0.07202,-0.05487 0.0069,-0.0069 0.07202,-0.05144 0.0069,-0.0034 0.07202,-0.05144 0.01029,-0.0069 0.07202,-0.05144 0.0069,-0.0034 0.07202,-0.05144 0.0069,-0.0069 0.07202,-0.05487 0.0069,-0.0034 0.07545,-0.05144 0.0069,-0.0069 0.07202,-0.05144 0.01029,-0.0034 0.07202,-0.05144 0.0069,-0.0034 0.07202,-0.05144 0.0069,-0.0034 0.07544,-0.05144 0.0069,-0.0069 0.07202,-0.05144 0.0069,-0.0034 0.07545,-0.04801 0.0069,-0.0034 0.07202,-0.05144 0.01029,-0.0069 0.07544,-0.04801 0.0069,-0.0069 0.07545,-0.05144 0.0069,-0.0069 0.07545,-0.04801 0.01029,-0.0034 0.07544,-0.04801 0.0069,-0.0069 0.07545,-0.04801 0.0069,-0.0034 0.07545,-0.04801 0.0069,-0.0034 0.07544,-0.04801 0.0069,-0.0034 0.07545,-0.04801 0.01029,-0.0034 0.07545,-0.04458 h 0.0034 l 34.468265,-21.2618886 0.0034,-0.00343 0.07202,-0.044581 0.0069,-0.00343 0.07545,-0.048011 0.01029,-0.00686 0.07544,-0.044581 0.01029,-0.00686 0.07545,-0.044581 0.01029,-0.00686 0.07544,-0.044581 0.01029,-0.00343 0.07888,-0.044581 0.0069,-0.00686 0.07544,-0.044581 0.01029,-0.00343 0.07545,-0.044581 0.0069,-0.00343 0.07887,-0.041152 0.0069,-0.00686 0.07888,-0.041152 0.0069,-0.00686 0.07545,-0.041152 0.01029,-0.00343 0.07888,-0.041152 0.0069,-0.00686 0.07545,-0.041152 0.01029,-0.00686 0.07545,-0.041152 0.01029,-0.00686 0.07545,-0.041152 0.0069,-0.00686 0.07887,-0.041152 0.0069,-0.00343 0.07545,-0.041152 0.01029,-0.00343 0.07545,-0.041152 0.01029,-0.00343 0.07888,-0.041152 0.01029,-0.00343 0.07887,-0.041152 0.0069,-0.00343 0.07887,-0.037723 0.01029,-0.00343 0.07887,-0.037723 0.01029,-0.00343 0.07545,-0.037723 0.01029,-0.00343 0.07888,-0.037723 0.0069,-0.00343 0.07887,-0.037723 0.01029,-0.00343 0.07887,-0.037723 0.01029,-0.00686 0.07887,-0.037723 0.01029,-0.00343 0.07887,-0.037723 0.01029,-0.00343 0.07887,-0.034293 0.01029,-0.00343 0.07887,-0.034293 0.0069,-0.00686 0.07887,-0.034293 0.0069,-0.00343 0.07887,-0.034293 0.01029,-0.00686 0.07887,-0.034293 0.01029,-0.00343 0.07887,-0.034293 0.01029,-0.00343 0.07887,-0.034293 0.01029,-0.00343 0.07887,-0.034293 0.01029,-0.00343 0.07888,-0.034293 0.01029,-0.00343 0.07887,-0.030864 0.01029,-0.00343 0.07887,-0.034293 0.01029,-0.00343 0.0823,-0.034293 0.01029,-0.00343 0.0823,-0.034293 0.01029,-0.00686 0.07888,-0.030864 0.0069,-0.00343 0.0823,-0.030864 0.01029,-0.00343 0.07888,-0.030864 0.0069,-0.00343 0.0823,-0.030864 0.01029,-0.00343 0.0823,-0.027435 0.01029,-0.00343 0.0823,-0.030864 0.01029,-0.00343 0.0823,-0.030864 0.01029,-0.00343 0.0823,-0.027435 0.01029,-0.00343 0.0823,-0.027435 0.01029,-0.00343 0.07888,-0.027435 0.01029,-0.00343 0.0823,-0.027435 0.01029,-0.00343 0.07887,-0.027435 0.01029,-0.00343 0.0823,-0.027435 0.0069,-0.00343 0.0823,-0.027435 0.01029,-0.00343 0.0823,-0.027435 0.01029,-0.00343 0.0823,-0.027435 0.01029,-0.00343 0.0823,-0.024005 0.0069,-0.00343 0.0823,-0.024005 0.01029,-0.00343 0.0823,-0.024005 h 0.01029 l 0.0823,-0.024005 0.01029,-0.00343 0.0823,-0.024005 0.0069,-0.00343 0.0823,-0.024005 0.0069,-0.00343 0.0823,-0.024005 0.01029,-0.00343 0.0823,-0.024005 0.01029,-0.00343 0.0823,-0.024005 0.01029,-0.00343 0.0823,-0.020576 0.01029,-0.00343 0.0823,-0.020576 0.0069,-0.00343 0.0823,-0.024005 0.0082,-0.00343 0.08573,-0.020576 h 0.0069 l 0.0823,-0.024005 h 0.01029 l 0.0847,-0.020576 0.01029,-0.003429 0.08573,-0.020576 0.01029,-0.003429 0.0823,-0.020576 h 0.01029 l 0.08573,-0.020576 h 0.01029 l 0.08231,-0.020576 0.01029,-0.003429 0.0823,-0.0171467 0.01029,-0.003429 0.0823,-0.020576 0.01029,-0.003429 0.0823,-0.0171467 h 0.01029 l 0.0823,-0.0171467 0.01029,-0.003429 0.0823,-0.0171467 h 0.0069 l 0.0823,-0.0171467 0.01029,-0.003429 0.08573,-0.0171467 h 0.0069 l 0.08573,-0.0171467 0.0069,-0.003429 0.08573,-0.0171467 0.01029,-0.003429 0.08573,-0.0171467 0.01029,-0.003429 0.08573,-0.0137174 h 0.01029 l 0.0823,-0.0137173 0.01029,-0.003429 0.08573,-0.0171467 0.01029,-0.003429 0.08573,-0.0137173 h 0.01029 l 0.0823,-0.0137173 0.01029,-0.003429 0.08573,-0.0137173 0.01029,-0.003429 0.0823,-0.0137173 h 0.0069 l 0.0823,-0.0137174 h 0.01029 l 0.08573,-0.0137173 0.01029,-0.003429 0.08573,-0.0137173 h 0.01029 l 0.08573,-0.0137174 h 0.01029 l 0.08573,-0.0137173 h 0.01029 l 0.08573,-0.010288 h 0.01029 l 0.0823,-0.010288 h 0.01029 l 0.08573,-0.010288 0.01029,-0.003429 0.08573,-0.010288 0.0069,-0.003429 0.08573,-0.006859 h 0.01029 l 0.0823,-0.010288 h 0.01029 l 0.0823,-0.010288 h 0.01029 l 0.08573,-0.010288 h 0.01029 l 0.08573,-0.010288 h 0.01029 l 0.0823,-0.006859 h 0.01029 l 0.08573,-0.010288 0.01029,-0.003429 0.08573,-0.006859 0.01029,-0.003429 0.08573,-0.006859 h 0.01029 l 0.08436,-0.006859 h 0.01029 l 0.08573,-0.006859 h 0.01029 l 0.08573,-0.003429 0.01029,-0.003429 0.08573,-0.006859 0.0069,-0.003429 0.08573,-0.003429 h 0.01029 l 0.08573,-0.006859 h 0.0069 l 0.08573,-0.003429 h 0.01029 l 0.08573,-0.003429 h 0.01029 l 0.08573,-0.003429 h 0.01029 l 0.08573,-0.003429 0.01029,-0.003429 0.08573,-0.003429 h 0.01029 l 0.08573,-0.003429 h 0.01029 l 0.08573,-0.003429 h 0.01029 l 0.08573,-0.003429 h 0.01029 l 0.08573,-0.003429 h 0.0069 l 0.08573,-0.003429 h 0.106309 l 0.08573,-0.003429 h 0.198901 z m -0.07887,9.25920965 h -0.05624 l -0.05624,6.859e-4 h -0.0559 l -0.0583,0.00137 -0.0583,0.00137 -0.0583,0.00171 -0.0583,0.00343 -0.0583,0.00343 -0.0583,0.00343 -0.05487,0.00343 -0.0583,0.00343 -0.05487,0.00343 -0.05487,0.00343 -0.05487,0.00343 -0.0583,0.00343 -0.05487,0.00343 -0.0583,0.00686 -0.0583,0.00686 -0.05487,0.00686 -0.0583,0.00686 -0.0583,0.00686 -0.0583,0.00686 -0.05487,0.00686 -0.0583,0.00686 -0.05487,0.00686 -0.05487,0.00686 -0.0583,0.00686 -0.05487,0.00686 -0.05487,0.00686 -0.05487,0.00686 -0.05487,0.00686 -0.0583,0.00686 -0.05487,0.010288 -0.05487,0.00686 -0.0583,0.010288 -0.05487,0.010288 -0.05487,0.010288 -0.05487,0.010288 -0.05487,0.010288 -0.05487,0.010288 -0.05487,0.010288 -0.05487,0.00686 -0.0583,0.010288 -0.05487,0.010288 -0.0583,0.010288 -0.05487,0.010288 -0.05487,0.010288 -0.05487,0.010288 -0.05487,0.013717 -0.05487,0.013717 -0.05487,0.013717 -0.05487,0.010288 -0.05487,0.010288 -0.05487,0.013717 -0.05487,0.013717 -0.05487,0.013717 -0.05487,0.013717 -0.05487,0.013717 -0.05487,0.013717 -0.05487,0.013711 -0.05487,0.01372 -0.05487,0.01372 -0.05487,0.01372 -0.05487,0.01715 -0.05487,0.01372 -0.05487,0.01715 -0.05144,0.01715 -0.05487,0.01715 -0.05487,0.01715 -0.05487,0.01715 -0.05487,0.01715 -0.05487,0.01715 -0.05144,0.01715 -0.05487,0.01715 -0.05487,0.02058 -0.05487,0.01715 -0.05487,0.01715 -0.05487,0.02058 -0.05487,0.01715 -0.05487,0.01715 -0.05144,0.01715 -0.05487,0.02058 -0.05487,0.02058 -0.05487,0.02058 -0.05144,0.02058 -0.05487,0.02058 -0.05144,0.02058 -0.05144,0.02058 -0.05487,0.024 -0.05487,0.02058 -0.05487,0.02058 -0.05487,0.02058 -0.05144,0.02401 -0.05144,0.02058 -0.05487,0.024 -0.05144,0.02401 -0.05144,0.02401 -0.05144,0.02401 -0.05487,0.02401 -0.05144,0.024 -0.05487,0.02401 -0.05144,0.02401 -0.05144,0.024 -0.05144,0.02401 -0.05487,0.02401 -0.05144,0.02401 -0.05144,0.024 -0.05144,0.02744 -0.05144,0.02744 -0.05144,0.024 -0.05144,0.02744 -0.05144,0.024 -0.05144,0.02744 -0.05144,0.02744 -0.05144,0.02743 -0.05144,0.02744 -0.05144,0.02744 -0.05144,0.03086 -0.04801,0.02743 -0.05144,0.02744 -0.04801,0.02744 -0.05144,0.03086 -0.05144,0.03086 -0.05144,0.03086 -0.04801,0.02743 -0.05144,0.03086 -0.04801,0.03086 -0.05144,0.03086 -0.05144,0.03086 -0.05487,0.03429 -34.430543,21.220732 -0.0583,0.03772 -0.05487,0.03429 -0.05144,0.03429 -0.05144,0.03429 -0.05144,0.03429 -0.05144,0.03429 -0.05144,0.03429 -0.05144,0.03429 -0.05144,0.03429 -0.05144,0.03429 -0.05144,0.03429 -0.05144,0.03429 -0.05144,0.03772 -0.04801,0.03429 -0.04801,0.03429 -0.05144,0.03429 -0.04801,0.03429 -0.04801,0.03429 -0.04801,0.03429 -0.04801,0.03429 -0.04801,0.03429 -0.04801,0.03429 -0.04801,0.03772 -0.04801,0.03429 -0.04801,0.03772 -0.04801,0.03772 -0.04801,0.03772 -0.04801,0.03772 -0.04801,0.03772 -0.04801,0.03772 -0.04458,0.03772 -0.04801,0.03772 -0.04801,0.03772 -0.04458,0.03772 -0.04801,0.03772 -0.04801,0.03772 -0.04458,0.03772 -0.04801,0.03772 -0.04458,0.03772 -0.04458,0.03772 -0.04458,0.04115 -0.04458,0.04115 -0.04458,0.03772 -0.04458,0.03772 -0.04458,0.04115 -0.04458,0.04115 -0.04458,0.04115 -0.04458,0.04115 -0.04458,0.04115 -0.04458,0.04115 -0.04458,0.04115 -0.04458,0.04115 -0.04458,0.04115 -0.04458,0.04115 -0.04458,0.04115 -0.04115,0.04115 -0.04458,0.04115 -0.04115,0.04458 -0.04458,0.04115 -0.04115,0.04458 -0.04115,0.04115 -0.04115,0.04458 -0.04115,0.04115 -0.04115,0.04458 -0.04115,0.04458 -0.04458,0.04458 -0.04115,0.04115 -0.04115,0.04458 -0.04115,0.04458 -0.04115,0.04458 -0.03772,0.04458 -0.04115,0.04458 -0.04115,0.04458 -0.04115,0.04458 -0.04115,0.04801 -0.04115,0.04458 -0.03772,0.04458 -0.03772,0.04458 -0.04115,0.04801 -0.03772,0.04458 -0.04115,0.04458 -0.03772,0.04801 -0.03772,0.04458 -0.03772,0.04801 -0.03772,0.04801 -0.03772,0.04801 -0.03772,0.04801 -0.03772,0.04801 -0.03772,0.04801 -0.03429,0.04801 -0.03772,0.04801 -0.03772,0.04801 -0.03772,0.04801 -0.03772,0.04801 -0.03429,0.04801 -0.03429,0.04801 -0.03429,0.04801 -0.03429,0.05144 -0.03429,0.04801 -0.03429,0.04801 -0.03429,0.05144 -0.03429,0.04801 -0.03429,0.04801 -0.03429,0.04801 -0.03429,0.04801 -0.03086,0.05144 -0.03429,0.05144 -0.03429,0.04801 -0.03429,0.05144 -0.03086,0.05144 -0.03086,0.04801 -0.03086,0.05144 -0.03086,0.05144 -0.03086,0.05144 -0.03086,0.05144 -0.03429,0.05144 -0.03429,0.05144 -0.03086,0.05144 -0.03086,0.05144 -0.03086,0.05144 -0.03086,0.05144 -0.03086,0.05144 -0.03086,0.05144 -0.03086,0.05144 -0.03086,0.05144 -0.03086,0.05144 -0.03086,0.05144 -0.03086,0.05487 -0.03086,0.05144 -0.03086,0.05144 -0.03086,0.05487 -0.02744,0.05144 -0.02743,0.05487 -0.02743,0.05487 -0.02743,0.05487 -0.02744,0.05144 -0.02743,0.05144 -0.02744,0.05487 -0.02744,0.05144 -0.02743,0.05487 -0.02401,0.05144 -0.02744,0.05487 -0.02743,0.05487 -0.02744,0.05487 -0.02743,0.05487 -0.02743,0.05487 -0.02401,0.05487 -0.024,0.05487 -0.02401,0.05487 -0.02401,0.05487 -0.024,0.05487 -0.02401,0.05487 -0.02401,0.05487 -0.02401,0.05487 -0.02401,0.05487 -0.02058,0.05487 -0.024,0.05487 -0.02401,0.0583 -0.02401,0.05487 -0.024,0.05487 -0.02401,0.05487 -0.02058,0.05487 -0.02401,0.0583 -0.02401,0.05487 -0.02058,0.05487 -0.02058,0.0583 -0.02058,0.05487 -0.02058,0.0583 -0.02058,0.05487 -0.02058,0.0583 -0.02058,0.0583 -0.02058,0.0583 -0.01715,0.0583 -0.02058,0.05487 -0.02058,0.0583 -0.01715,0.0583 -0.01715,0.05487 -0.01715,0.0583 -0.02058,0.0583 -0.01715,0.05487 -0.01715,0.05487 -0.01715,0.0583 -0.02058,0.0583 -0.01715,0.0583 -0.01715,0.05487 -0.01715,0.0583 -0.01715,0.0583 -0.01715,0.0583 -0.01715,0.0583 -0.01715,0.0583 -0.01372,0.0583 -0.01372,0.0583 -0.01715,0.0583 -0.01372,0.0583 -0.01715,0.0583 -0.01372,0.0583 -0.01372,0.0583 -0.013718,0.06173 -0.013717,0.0583 -0.013717,0.0583 -0.013717,0.0583 -0.013717,0.0583 -0.013717,0.0583 -0.013717,0.0583 -0.010288,0.0583 -0.013717,0.0583 -0.010288,0.0583 -0.010288,0.06173 -0.010288,0.06173 -0.010288,0.06173 -0.010288,0.06173 -0.010288,0.0583 -0.010288,0.0583 -0.010288,0.06173 -0.010288,0.06173 -0.010288,0.0583 -0.010288,0.0583 -0.010288,0.0583 -0.010288,0.06173 -0.00686,0.06173 -0.00686,0.06173 -0.00686,0.0583 -0.010288,0.06173 -0.010288,0.0583 -0.00686,0.06173 -0.00686,0.06173 -0.00686,0.06173 -0.00686,0.06173 -0.00686,0.06173 -0.00686,0.06173 -0.00686,0.0583 -0.00686,0.06173 -0.00686,0.06173 -0.00343,0.06173 -0.00686,0.06173 -0.00686,0.06173 -0.00343,0.06173 -0.00343,0.06173 -0.00343,0.06173 -0.00343,0.06173 -0.00343,0.06173 -0.00343,0.06173 -0.00343,0.06173 -0.00343,0.06173 -0.00343,0.06173 -0.00343,0.06173 v 0.06173 l -0.00343,0.06173 -0.00343,0.06173 v 0.06173 l -0.00343,0.06173 V 88.96837 l 0.00343,0.06173 v 0.185184 l 0.00343,0.0583 0.00343,0.06173 0.00343,0.06173 0.00343,0.06173 0.00343,0.06173 0.00343,0.06173 0.00343,0.06173 0.00343,0.06173 0.00343,0.06173 0.00686,0.06173 0.00343,0.06173 0.00343,0.06173 0.00343,0.06173 0.00686,0.0583 0.00686,0.06173 0.00686,0.0583 0.00343,0.06173 0.00686,0.0583 0.00686,0.0583 0.00686,0.0583 0.00686,0.0583 0.00686,0.06173 0.00686,0.0583 0.00686,0.0583 0.00686,0.06173 0.00686,0.06173 0.00686,0.0583 0.00686,0.06173 0.010288,0.0583 0.010288,0.0583 0.010288,0.0583 0.010288,0.0583 0.010288,0.06173 0.010288,0.0583 0.010288,0.0583 0.010288,0.0583 0.010288,0.0583 0.013717,0.0583 0.010288,0.0583 0.010288,0.0583 0.010288,0.0583 0.013717,0.0583 0.013717,0.0583 0.010288,0.0583 0.013717,0.0583 0.013717,0.0583 0.013717,0.0583 0.013717,0.0583 0.013717,0.0583 0.013718,0.0583 0.01372,0.0583 0.01372,0.05487 0.01715,0.05487 0.01372,0.0583 0.01372,0.0583 0.01372,0.0583 0.01715,0.0583 0.01372,0.05487 0.01372,0.0583 0.01372,0.05487 0.01715,0.0583 0.01372,0.05487 0.01715,0.0583 0.01715,0.0583 0.01715,0.05487 0.01715,0.0583 0.01715,0.0583 0.01715,0.05487 0.01715,0.0583 0.02058,0.05487 0.02058,0.05487 0.02058,0.05487 0.02058,0.05487 0.01715,0.05487 0.02058,0.0583 0.02058,0.05487 0.02058,0.05487 0.02058,0.05487 0.02058,0.05487 0.02058,0.05487 0.02058,0.05487 0.02058,0.05487 0.02058,0.05487 0.02058,0.05487 0.02401,0.05487 0.02401,0.05487 0.02058,0.05487 0.02058,0.05487 0.02058,0.05487 0.02058,0.05487 0.02058,0.05487 0.024,0.05487 0.02401,0.05487 0.02401,0.05487 0.024,0.05487 0.02401,0.05487 0.02401,0.05487 0.02401,0.05487 0.02401,0.05487 0.024,0.05487 0.02401,0.05487 0.02401,0.05487 0.02401,0.05144 0.02743,0.05487 0.02743,0.05144 0.02744,0.05487 0.02744,0.05144 0.02743,0.05144 0.02744,0.05144 0.02744,0.05144 0.02743,0.05144 0.02743,0.05144 0.03086,0.05144 0.02744,0.05144 0.02743,0.05144 0.02743,0.05144 0.03086,0.05144 0.03086,0.05144 0.02744,0.05144 0.02744,0.05144 0.02743,0.05144 0.03087,0.05144 0.02743,0.05144 0.03086,0.04801 0.03086,0.05144 0.03086,0.04801 0.03086,0.05144 0.03086,0.05144 0.03086,0.04801 0.03086,0.04801 0.03086,0.04801 0.03086,0.04801 0.03086,0.05144 0.03087,0.05144 0.03429,0.04801 0.03086,0.04801 0.03086,0.05144 0.03086,0.04801 0.03086,0.04801 0.03429,0.04801 0.03429,0.04801 0.03429,0.05144 0.03429,0.04801 0.03429,0.04801 0.03429,0.04801 0.03429,0.04801 0.03429,0.04801 0.03429,0.04801 0.03429,0.04801 0.03772,0.04801 0.03772,0.04801 0.03429,0.04801 0.03429,0.04801 0.03429,0.04801 0.03429,0.04801 0.03772,0.04458 0.03772,0.04458 0.03772,0.04801 0.03772,0.04458 0.03772,0.04801 0.03772,0.04458 0.03772,0.04458 0.03772,0.04458 0.03772,0.04458 0.03772,0.04458 0.03772,0.04458 0.03772,0.04458 0.03772,0.04458 0.03772,0.04458 0.03772,0.04458 0.03772,0.04458 0.04115,0.04458 0.04115,0.04458 0.03772,0.04458 0.04115,0.04115 0.04115,0.04458 0.04115,0.04115 0.04115,0.04458 0.03772,0.04458 0.04115,0.04458 0.04115,0.04115 0.04115,0.04115 0.04115,0.04115 0.04115,0.04115 0.04115,0.04458 0.04115,0.04115 0.04115,0.04115 0.04115,0.04115 0.04115,0.04115 0.04115,0.04115 0.04458,0.04115 0.04115,0.04115 0.04115,0.04115 0.04458,0.04115 0.04115,0.04115 0.04115,0.04115 0.04458,0.04115 0.04458,0.03772 0.04458,0.03772 0.04458,0.04115 0.04458,0.04115 0.04458,0.03772 0.04458,0.03772 0.04458,0.04115 0.04458,0.04115 0.04458,0.03772 0.04801,0.03772 0.04801,0.03772 0.04801,0.03772 0.04458,0.0377 0.04458,0.0377 0.04801,0.0377 0.04458,0.0377 0.04801,0.0343 0.04458,0.0377 0.04801,0.0377 0.04801,0.0377 0.04801,0.0377 0.04458,0.0343 0.04801,0.0377 0.04801,0.0343 0.04801,0.0377 0.04801,0.0377 0.04801,0.0343 0.04801,0.0343 0.05144,0.0343 0.04801,0.0343 0.04801,0.0343 0.04801,0.0343 0.04801,0.0343 0.04801,0.0343 0.04801,0.0343 0.05144,0.0343 0.05144,0.0309 0.05144,0.0343 0.04801,0.0343 0.05144,0.0343 0.05144,0.0343 0.04801,0.0309 0.05144,0.0309 0.05144,0.0309 0.05144,0.0309 0.05144,0.0309 0.05144,0.0309 0.05487,0.0309 0.05144,0.0309 0.05144,0.0309 0.0583,0.0343 35.898299,20.98755 0.04458,0.0274 0.03772,0.0206 0.04115,0.0206 0.04115,0.0206 0.04115,0.0206 0.03772,0.024 0.04115,0.0206 0.04115,0.0206 0.04115,0.0206 0.04115,0.024 0.04115,0.0206 0.04115,0.0206 0.04115,0.0206 0.04115,0.0206 0.04115,0.0206 0.04115,0.0206 0.04115,0.0206 0.04115,0.0206 0.03772,0.0206 0.04115,0.0206 0.04115,0.0206 0.04115,0.0172 0.04115,0.0206 0.04115,0.0172 0.04115,0.0172 0.04115,0.0171 0.04115,0.0206 0.04115,0.0206 0.04115,0.0171 0.04115,0.0206 0.04115,0.0171 0.04115,0.0172 0.04115,0.0172 0.04115,0.0171 0.04115,0.0171 0.04115,0.0172 0.04115,0.0171 0.04115,0.0171 0.04115,0.0172 0.04115,0.0137 0.04458,0.0171 0.04115,0.0172 0.04115,0.0171 0.04115,0.0172 0.04115,0.0172 0.04115,0.0137 0.04115,0.0171 0.04115,0.0137 0.04115,0.0137 0.04458,0.0137 0.04115,0.0137 0.03772,0.0137 0.08916,0.0274 0.08573,0.0274 0.08573,0.024 0.08573,0.024 0.08573,0.024 0.08573,0.024 0.08573,0.024 0.08573,0.024 0.08573,0.024 0.08573,0.0206 0.08573,0.0206 0.08573,0.0206 0.08573,0.0172 0.08573,0.0206 0.08573,0.0171 0.08573,0.0172 0.08573,0.0172 0.08573,0.0137 0.08573,0.0172 0.08573,0.0137 0.08573,0.0137 0.08916,0.0137 0.08573,0.0137 0.08916,0.0103 0.08916,0.0103 0.08916,0.0103 0.08916,0.007 0.08573,0.007 0.08916,0.007 0.08573,0.007 0.08916,0.007 0.08916,0.007 0.08573,0.007 0.08573,0.003 0.08573,0.003 0.08916,0.003 h 0.438956 l 0.08916,-0.003 h 0.08916 l 0.08916,-0.003 0.08916,-0.003 0.08916,-0.007 0.08916,-0.007 0.08916,-0.003 0.08916,-0.007 0.08916,-0.007 0.08916,-0.007 0.08573,-0.007 0.08916,-0.0103 0.08916,-0.0103 0.08573,-0.0103 0.08916,-0.0103 0.08573,-0.0137 0.08916,-0.0137 0.08573,-0.0137 0.08916,-0.0137 0.08573,-0.0137 0.08573,-0.0172 0.08573,-0.0137 0.08916,-0.0172 0.08573,-0.0171 0.08573,-0.0206 0.08573,-0.0171 0.08573,-0.0206 0.08573,-0.0206 0.08573,-0.0206 0.08573,-0.0206 0.08573,-0.024 0.08573,-0.024 0.08573,-0.024 0.08573,-0.024 0.08916,-0.0274 0.04115,-0.0137 0.04115,-0.0137 0.04115,-0.0137 0.04458,-0.0137 0.04115,-0.0137 0.04458,-0.0137 0.04115,-0.0137 0.04115,-0.0137 0.04458,-0.0137 0.04115,-0.0137 0.04115,-0.0137 0.04458,-0.0171 0.04115,-0.0137 0.04458,-0.0137 0.04115,-0.0171 0.04115,-0.0137 0.04115,-0.0137 0.04115,-0.0137 0.04458,-0.0171 0.04115,-0.0137 0.04115,-0.0172 0.04115,-0.0171 0.04115,-0.0172 0.04115,-0.0172 0.04115,-0.0171 0.04115,-0.0172 0.04115,-0.0172 0.04115,-0.0171 0.04115,-0.0172 0.04115,-0.0172 0.04115,-0.0206 0.04115,-0.0206 0.04115,-0.0172 0.04115,-0.0206 0.04115,-0.0206 0.04115,-0.0172 0.04115,-0.0206 0.04115,-0.0206 0.04115,-0.0206 0.03772,-0.0206 0.04115,-0.0206 0.04115,-0.0206 0.04115,-0.0206 0.04115,-0.0206 0.04115,-0.0206 0.04115,-0.0206 0.04115,-0.0206 0.04115,-0.0206 0.03772,-0.0206 0.04115,-0.0206 0.04115,-0.0206 0.04458,-0.024 39.770029,-22.16381 0.048,-0.024 0.0446,-0.024 0.0412,-0.024 0.0412,-0.024 0.0412,-0.024 0.0412,-0.0274 0.0446,-0.024 0.0412,-0.024 0.0412,-0.024 0.0412,-0.024 0.0412,-0.0274 0.0411,-0.0274 0.0412,-0.024 0.0412,-0.02401 0.0412,-0.02401 0.0412,-0.02743 0.0412,-0.02743 0.0411,-0.02401 0.0412,-0.02743 0.0412,-0.02401 0.0377,-0.02743 0.0377,-0.02743 0.0377,-0.02744 0.0377,-0.02743 0.0377,-0.02743 0.0412,-0.02743 0.0377,-0.02743 0.0412,-0.02743 0.0377,-0.02743 0.0377,-0.02743 0.0377,-0.02743 0.0377,-0.02743 0.0377,-0.02743 0.0412,-0.02743 0.0377,-0.03086 0.0377,-0.02743 0.0377,-0.03086 0.0377,-0.02743 0.0377,-0.03086 0.0377,-0.03086 0.0377,-0.03086 0.0377,-0.02743 0.0377,-0.02743 0.0377,-0.03086 0.0343,-0.03086 0.0377,-0.03086 0.0377,-0.03086 0.0343,-0.02743 0.0377,-0.03086 0.0377,-0.03429 0.0343,-0.03086 0.0377,-0.03086 0.0343,-0.03086 0.0343,-0.03086 0.0343,-0.03429 0.0377,-0.03086 0.0343,-0.03429 0.0343,-0.03086 0.0343,-0.03429 0.0343,-0.03429 0.0343,-0.03086 0.0343,-0.03429 0.0343,-0.03086 0.0343,-0.03429 0.0343,-0.03429 0.0343,-0.03429 0.0343,-0.03429 0.0309,-0.03429 0.0343,-0.03429 0.0309,-0.03429 0.0343,-0.03429 0.0343,-0.03429 0.0343,-0.03429 0.0309,-0.03429 0.0309,-0.03429 0.0309,-0.03429 0.0309,-0.03429 0.0343,-0.03429 0.0309,-0.03429 0.0309,-0.03429 0.0309,-0.03429 0.0309,-0.03429 0.0309,-0.03429 0.0309,-0.03429 0.0309,-0.03429 0.0309,-0.03772 0.0309,-0.03772 0.0309,-0.03772 0.0309,-0.03429 0.0309,-0.03429 0.0309,-0.03429 0.0309,-0.03772 0.0309,-0.03429 0.0309,-0.03772 0.0274,-0.03429 0.0274,-0.03772 0.0274,-0.03772 0.0274,-0.03429 0.0309,-0.03772 0.0274,-0.03772 0.0274,-0.03772 0.0274,-0.03772 0.0274,-0.03772 0.0274,-0.03772 0.0274,-0.03772 0.0274,-0.03772 0.0274,-0.03772 0.0274,-0.03772 0.0274,-0.03772 0.0274,-0.03772 0.0274,-0.03772 0.024,-0.03772 0.024,-0.04115 0.0274,-0.04115 0.0274,-0.03772 0.024,-0.03772 0.024,-0.03772 0.0274,-0.04115 0.0274,-0.03772 0.024,-0.03772 0.024,-0.04115 0.024,-0.04115 0.024,-0.04115 0.024,-0.04115 0.024,-0.03772 0.024,-0.04115 0.024,-0.04115 0.024,-0.03772 0.024,-0.04115 0.024,-0.04115 0.024,-0.04115 0.0206,-0.04115 0.0206,-0.04115 0.024,-0.04115 0.024,-0.04115 0.0206,-0.04115 0.024,-0.04115 0.024,-0.04115 0.0206,-0.04115 0.0206,-0.04115 0.0206,-0.04458 0.0206,-0.04115 0.024,-0.04115 0.024,-0.04115 0.0206,-0.04115 0.0206,-0.04115 0.0206,-0.04115 0.0206,-0.04458 0.0206,-0.04115 0.0206,-0.04115 0.0206,-0.04458 0.0206,-0.04115 0.0206,-0.04115 0.0206,-0.04458 0.0206,-0.04458 0.0206,-0.04458 0.0206,-0.04115 0.0172,-0.04115 0.0171,-0.04458 0.0172,-0.04458 0.0171,-0.04458 0.0171,-0.04115 0.0172,-0.04458 0.0171,-0.04458 0.0172,-0.04458 0.0171,-0.04115 0.0171,-0.04458 0.0172,-0.04458 0.0171,-0.04458 0.0171,-0.04458 0.0172,-0.04458 0.0137,-0.04458 0.0137,-0.04458 0.0137,-0.04458 0.0137,-0.04458 0.0171,-0.04458 0.0172,-0.04458 0.0172,-0.04458 0.0171,-0.04458 0.0137,-0.04458 0.0172,-0.04458 0.0137,-0.04458 0.0137,-0.04458 0.0172,-0.04458 0.0137,-0.04458 0.0137,-0.04458 0.0137,-0.04458 0.0137,-0.04458 0.0103,-0.04458 0.0137,-0.04458 0.0137,-0.04458 0.0137,-0.04458 0.0137,-0.04458 0.0103,-0.04458 0.0103,-0.04801 0.0137,-0.04458 0.0103,-0.04458 0.0103,-0.04801 0.0137,-0.04458 0.0103,-0.04458 0.0103,-0.04458 0.0103,-0.04458 0.0103,-0.04801 0.0103,-0.04458 0.0103,-0.04458 0.007,-0.04801 0.0103,-0.04801 0.0103,-0.04458 0.007,-0.04801 0.0103,-0.04458 0.0103,-0.04801 0.0103,-0.04801 0.0103,-0.04458 0.0103,-0.04801 0.007,-0.04801 0.0103,-0.04801 0.007,-0.04458 0.0103,-0.04458 0.007,-0.04801 0.007,-0.04801 0.007,-0.04801 0.007,-0.04801 0.007,-0.04801 0.007,-0.04801 0.007,-0.04801 0.003,-0.04801 0.007,-0.04458 0.003,-0.04801 0.007,-0.04801 0.007,-0.04458 0.007,-0.04801 0.003,-0.04801 0.003,-0.04801 0.003,-0.04801 0.003,-0.04801 0.007,-0.04801 0.003,-0.04801 0.003,-0.04801 0.003,-0.04801 0.003,-0.04801 0.003,-0.04801 0.003,-0.04801 0.003,-0.04801 0.003,-0.04801 0.003,-0.04801 0.003,-0.04801 0.003,-0.04801 v -0.09602 l 0.003,-0.04801 V 43.19317 l -0.003,-0.04218 -0.003,-0.04458 v -0.04458 l -0.003,-0.04458 v -0.04458 l -0.003,-0.04458 v -0.04458 l -0.003,-0.04458 -0.003,-0.04115 -0.003,-0.04458 -0.003,-0.04458 -0.003,-0.04458 -0.003,-0.04115 -0.003,-0.04458 -0.003,-0.04115 -0.003,-0.04458 -0.007,-0.04458 -0.003,-0.04115 -0.003,-0.04115 -0.007,-0.04115 -0.003,-0.04115 -0.007,-0.04458 -0.003,-0.04115 -0.007,-0.04115 -0.007,-0.04458 -0.003,-0.04458 -0.003,-0.04115 -0.007,-0.03772 -0.0137,-0.09019 -0.0103,-0.08745 -0.0137,-0.08916 -0.0137,-0.08573 -0.0172,-0.08573 -0.0171,-0.08573 -0.0137,-0.08573 -0.0172,-0.08573 -0.0206,-0.08573 -0.0206,-0.08573 -0.0206,-0.08573 -0.0206,-0.08573 -0.0206,-0.08573 -0.0206,-0.08573 -0.0206,-0.08573 -0.024,-0.08573 -0.024,-0.08573 -0.024,-0.08573 -0.0274,-0.08573 -0.024,-0.0823 -0.0274,-0.0823 -0.0274,-0.0823 -0.0274,-0.0823 -0.0274,-0.0823 -0.0309,-0.0823 -0.0309,-0.0823 -0.0309,-0.07887 -0.0309,-0.0823 -0.0309,-0.0823 -0.0309,-0.0823 -0.0343,-0.07887 -0.0309,-0.0823 -0.0343,-0.07888 -0.0343,-0.07887 -0.0343,-0.07888 -0.0377,-0.07887 -0.0343,-0.07887 -0.0377,-0.07888 -0.0377,-0.07887 -0.0377,-0.07545 -0.0412,-0.07888 -0.0377,-0.07887 -0.0412,-0.07887 -0.0412,-0.07545 -0.0412,-0.07545 -0.0412,-0.07545 -0.0412,-0.07545 -0.0411,-0.07545 -0.0446,-0.07545 -0.0446,-0.07544 -0.0446,-0.07545 -0.048,-0.07545 -0.0446,-0.07202 -0.0446,-0.07202 -0.048,-0.07202 -0.048,-0.07202 -0.048,-0.07202 -0.048,-0.07202 -0.048,-0.07202 -0.048,-0.07202 -0.0514,-0.06859 -0.0514,-0.06859 -0.0514,-0.06859 -0.0514,-0.06859 -0.0514,-0.06859 -0.0549,-0.06859 -0.0549,-0.06859 -0.0549,-0.06859 -0.0549,-0.06859 -0.0549,-0.06516 -0.0583,-0.06516 -0.0549,-0.06516 -0.0583,-0.06516 -0.0583,-0.06516 -0.0583,-0.06516 -0.0583,-0.06516 -0.0583,-0.06516 -0.0617,-0.06173 -0.0617,-0.06173 -0.0617,-0.06173 -0.0617,-0.06173 -0.0617,-0.06173 -0.0652,-0.06173 -0.0651,-0.06173 -0.0652,-0.0583 -0.0652,-0.0583 -0.0651,-0.0583 -0.0652,-0.0583 -0.0652,-0.0583 -0.0686,-0.0583 -0.0686,-0.05487 -0.0686,-0.05487 -0.0652,-0.05487 -0.072,-0.0583 -0.0309,-0.02401 -0.0343,-0.02743 -0.0343,-0.02743 -0.0343,-0.02744 -0.0343,-0.02743 -0.0343,-0.02401 -0.0343,-0.02743 -0.0343,-0.02743 -0.0377,-0.02744 -0.0377,-0.02743 -0.0343,-0.02743 -0.0343,-0.02744 -0.0343,-0.02743 -0.0343,-0.02401 -0.0343,-0.02743 -0.0377,-0.02743 -0.0343,-0.02401 -0.0343,-0.02401 -0.0377,-0.02743 -0.0377,-0.02401 -0.0377,-0.02401 -0.0343,-0.02401 -0.0377,-0.024 -0.0377,-0.02401 -0.0377,-0.02401 -0.0377,-0.02401 -0.0377,-0.024 -0.0377,-0.02401 -0.0377,-0.02401 -0.0377,-0.02401 -0.0377,-0.02401 -0.0377,-0.02058 -0.0377,-0.02058 -0.0446,-0.02401 -38.806046,-22.767025 -0.05487,-0.03361 -0.04973,-0.02743 -0.05144,-0.03086 -0.05144,-0.03086 -0.05041,-0.02846 -0.05144,-0.02744 -0.04972,-0.02743 -0.05144,-0.02744 -0.05144,-0.02744 -0.05144,-0.02743 -0.05041,-0.02744 -0.05144,-0.02743 -0.05144,-0.02743 -0.05144,-0.02743 -0.05144,-0.02744 -0.05144,-0.02743 -0.05144,-0.02744 -0.05247,-0.02401 -0.05144,-0.02743 -0.05144,-0.02401 -0.05144,-0.02401 -0.05144,-0.02744 -0.05315,-0.024 -0.05144,-0.02401 -0.05144,-0.02401 -0.0535,-0.024 -0.05144,-0.02401 -0.05144,-0.02058 -0.05316,-0.02401 -0.05212,-0.02401 -0.05144,-0.02401 -0.05315,-0.02058 -0.05144,-0.02058 -0.05487,-0.02058 -0.05281,-0.02401 -0.05418,-0.02058 -0.05487,-0.024 -0.05487,-0.02058 -0.05315,-0.02058 -0.05315,-0.02058 -0.05384,-0.02058 -0.05487,-0.02058 -0.05487,-0.02058 -0.05144,-0.02058 -0.05144,-0.01715 -0.05144,-0.01715 -0.05487,-0.02058 -0.05487,-0.01715 -0.05144,-0.01715 -0.05487,-0.01715 -0.05487,-0.01715 -0.05144,-0.01715 -0.05487,-0.01715 -0.05487,-0.01715 -0.05487,-0.01715 -0.05144,-0.01715 -0.05487,-0.01715 -0.05487,-0.01715 -0.05487,-0.01715 -0.05487,-0.01372 -0.05487,-0.01715 -0.05487,-0.01372 -0.05487,-0.017148 -0.05487,-0.013717 -0.05487,-0.013717 -0.05487,-0.013717 -0.05487,-0.017147 -0.05487,-0.013717 -0.05487,-0.013717 -0.05487,-0.010288 -0.05487,-0.013717 -0.05487,-0.013717 -0.05487,-0.013717 -0.05487,-0.010288 -0.05487,-0.013717 -0.05487,-0.010288 -0.05487,-0.010288 -0.05487,-0.013717 -0.05487,-0.010288 -0.05487,-0.010288 -0.05487,-0.010288 -0.05487,-0.010288 -0.05487,-0.010288 -0.05487,-0.010288 -0.0583,-0.010288 -0.05487,-0.00686 -0.05487,-0.00686 -0.05487,-0.00686 -0.05487,-0.00686 -0.05487,-0.010288 -0.05487,-0.010288 -0.05487,-0.00686 -0.0583,-0.010288 -0.05487,-0.00686 -0.05487,-0.010288 -0.05487,-0.00686 -0.05487,-0.00686 -0.05487,-0.00686 -0.05487,-0.00686 -0.05487,-0.00686 -0.0583,-0.00686 -0.05487,-0.00343 -0.05487,-0.00686 -0.05487,-0.00686 -0.05487,-0.00343 -0.05487,-0.00343 -0.05487,-0.00343 -0.05487,-0.00343 -0.05487,-0.00343 -0.0583,-0.00343 -0.0583,-0.00343 -0.05487,-0.00343 -0.05487,-0.00343 h -0.05487 l -0.05487,-0.00343 -0.05487,-0.00343 h -0.0583 L 56.843444,9.53372 56.788574,9.53029 56.737134,9.52686 56.682264,9.52343 H 56.569096 L 56.514226,9.52 h -0.109739 z"
     fill="#c9177e"
     id="path4"
     style="fill-rule:evenodd;stroke-width:0.122316" /><polygon
     fill="#ffffff"
     fill-rule="nonzero"
     points="71.734869,101.8513 71.734869,70.779451 47.07245,70.779451 47.07245,101.8513 32.204903,101.8513 32.204903,30.788581 47.07245,30.788581 47.07245,56.673216 71.734869,56.673216 71.734869,30.788581 86.645626,30.788581 86.645626,101.8513 "
     id="polygon6"
     transform="translate(-1.9548847,0.0233127)"
     style="stroke-width:0.122316" /></g></svg>
