<?xml version="1.0" encoding="UTF-8" standalone="no"?>
<svg id="Capa_1" enable-background="new 0 0 515.555 515.555" height="512" viewBox="0 0 515.555 515.555" width="512" version="1.1" sodipodi:docname="menu-dark.svg" inkscape:version="1.1 (c4e8f9ed74, 2021-05-24)" xmlns:inkscape="http://www.inkscape.org/namespaces/inkscape" xmlns:sodipodi="http://sodipodi.sourceforge.net/DTD/sodipodi-0.dtd" xmlns="http://www.w3.org/2000/svg" xmlns:svg="http://www.w3.org/2000/svg">
   <defs id="defs11" />
   <sodipodi:namedview id="namedview9" pagecolor="#ffffff" bordercolor="#666666" borderopacity="1.0" inkscape:pageshadow="2" inkscape:pageopacity="0.0" inkscape:pagecheckerboard="0" showgrid="false" inkscape:zoom="1.0488281" inkscape:cx="255.52328" inkscape:cy="431.43389" inkscape:window-width="1356" inkscape:window-height="710" inkscape:window-x="5" inkscape:window-y="29" inkscape:window-maximized="1" inkscape:current-layer="Capa_1" />
   <path d="m303.347 18.875c25.167 25.167 25.167 65.971 0 91.138s-65.971 25.167-91.138 0-25.167-65.971 0-91.138c25.166-25.167 65.97-25.167 91.138 0" id="path2" />
   <path d="m303.347 212.209c25.167 25.167 25.167 65.971 0 91.138s-65.971 25.167-91.138 0-25.167-65.971 0-91.138c25.166-25.167 65.97-25.167 91.138 0" id="path4" />
   <path d="m303.347 405.541c25.167 25.167 25.167 65.971 0 91.138s-65.971 25.167-91.138 0-25.167-65.971 0-91.138c25.166-25.167 65.97-25.167 91.138 0" id="path6" />
</svg>